<svg id="Layer_1" data-name="Layer 1" xmlns="http://www.w3.org/2000/svg" viewBox="0 0 4444.92 1501.9"><defs><style>.cls-1{fill:#4d9c2d;}.cls-2,.cls-3,.cls-4,.cls-5{stroke:#000;}.cls-2{stroke-width:1.34px;}.cls-3{stroke-width:1.35px;}.cls-4{stroke-width:1.35px;}.cls-5{fill:#fff;stroke-width:10.25px;}</style></defs><title>horizon</title><path class="cls-1" d="M486.43,1055.28C-916.66,450.53,1036.9-425.09,2293.89,235.88,1045.42-252.34-529.36,497.66,486.43,1055.28Z" transform="translate(0 0)"/><path class="cls-2" d="M2378.67,1388.89q-26.8-.44-47.38-11.09-20.79-10.37-33.75-26.81-26.44-34.7-26.5-72.15,1-57.1,42.73-96.89,40.18-40.2,100.55-41.38,30.88,0,52.36,10.64,21.06,10.86,33.81,27.3a116.39,116.39,0,0,1,19.25,35.59,151.62,151.62,0,0,1,5,37.46q0,51.1-36.35,92.72Q2451.84,1387.3,2378.67,1388.89Zm7.88-42.4c1.62,0.28,5-.31,10.32-1.84,4.93-1.24,10.27-4.88,15.83-10.93a100.37,100.37,0,0,0,8.65-12.77,65.2,65.2,0,0,0,7.47-18.11q6.87-20.91,8.87-59.91,1.83-25.36-3.88-42.29-6-17.15-20.12-17.64a36.62,36.62,0,0,0-24.24,10c-6.9,6.35-12.7,14.7-17.51,25.09q-13.92,33.4-13.92,64.79,0,28.12,6.5,45.53Q2371,1346.5,2386.56,1346.49Z" transform="translate(0 0)"/><path class="cls-3" d="M2664.43,1171a180.57,180.57,0,0,1,35.49-23.28,99.06,99.06,0,0,1,39.15-9.63q65.49,0.72,65.93,95.45-1.31,73.83-40,114.09-37.31,40.08-76.37,40.51-34.18-.44-59.26-24.73l-25.8,137.87h-85.82L2584.93,1144h84.31Zm29.57,19c-5.28,0-10.67,2.17-16,6.5-5.57,4.54-11.31,12.06-17.17,22.62q-17.56,30.47-23.19,101.55,9.66,20.93,31.43,20.93c5.39,0,11.19-2.7,17.34-8.15q8.34-8.11,15.3-22.36,15.23-29.09,15.72-73.59Q2717.86,1190,2694,1190Z" transform="translate(0 0)"/><path class="cls-2" d="M3041.87,1351q-24.1,14.57-55.9,25.86a199.68,199.68,0,0,1-66.46,12c-15.13-.29-27.71-4-37.62-11.09a73.71,73.71,0,0,1-25.17-24.5,128.23,128.23,0,0,1-7.77-15.72c-2.09-5.25-4-10.41-5.63-15.47a147.69,147.69,0,0,1-2.61-14.8,83.64,83.64,0,0,1-.92-12.26q1.83-41.62,16.52-71.45a125.61,125.61,0,0,1,16.53-27.06,144.3,144.3,0,0,1,19.65-20.82,140.82,140.82,0,0,1,46.45-27q24.43-8.07,46.68-8.09,34.87,0,58,14.35,23.48,14.56,23.94,48.35-0.43,19.39-12.29,33.51-12.09,15.27-32.7,25.21-42.53,20.82-95.28,19.89a65.09,65.09,0,0,0,0,11.83,51,51,0,0,0,3.31,17.58,31.51,31.51,0,0,0,11.42,14.56c5.51,4.8,13.45,7.19,23.72,7.19a73.2,73.2,0,0,0,30.21-6.25,243.88,243.88,0,0,0,28.47-13.64Zm-62.63-169.66c-13.1,1.25-23.6,7.6-31.32,19.06-7.65,11.31-13.22,25.23-16.82,41.78q68.79,1.87,71-37.15c0.63-7.26-1.17-13.13-5.34-17.64C2992.4,1183.4,2986.6,1181.37,2979.24,1181.37Z" transform="translate(0 0)"/><path class="cls-4" d="M3193.61,1187.09l0.93,0.93q19.74-24.58,43.66-37.3,23.66-12.05,44.77-12.06,51.06,0,51.09,51.25,0.44,16.53-3.59,39.61L3302.81,1383h-83l26.73-149.82a86.44,86.44,0,0,0,.93-11.88c-1.22-10-3.54-16.31-7-19.1s-7-4-10.09-4a29.14,29.14,0,0,0-19.78,7.21,62.31,62.31,0,0,0-15.13,19.1,193.74,193.74,0,0,0-16.58,52l-19,106.49h-83l43-238.35h82.34Z" transform="translate(0 0)"/><path class="cls-5" d="M2358.49,1365.93c-17.79-.31-33.63-4-47.37-11.08S2286,1339,2277.36,1328q-26.44-34.67-26.44-72.15,0.87-57.08,42.74-96.86,40.18-40.21,100.54-41.38,30.8,0,52.31,10.61,21,10.88,33.86,27.3a115.48,115.48,0,0,1,19.2,35.62,151.68,151.68,0,0,1,5,37.46q0,51.07-36.36,92.69Q2431.64,1364.32,2358.49,1365.93Zm7.94-42.39c1.57,0.29,5-.33,10.32-1.87,4.93-1.25,10.21-4.88,15.77-10.93a94.81,94.81,0,0,0,8.64-12.78,63.25,63.25,0,0,0,7.48-18.11q7-20.87,8.87-59.91,1.83-25.32-3.83-42.26-6-17.23-20.18-17.64a36.31,36.31,0,0,0-24.24,10c-6.84,6.35-12.71,14.73-17.52,25.1q-13.91,33.44-13.91,64.79,0,28.09,6.49,45.52C2348.69,1317.48,2356,1323.54,2366.43,1323.54Z" transform="translate(0 0)"/><path class="cls-5" d="M2645.3,1150.29a175.85,175.85,0,0,1,35.25-23.09,98,98,0,0,1,38.74-9.57q65.15,0.72,65.53,94.8-1.31,73.28-39.72,113.28-37,39.77-75.85,40.23-33.91-.47-58.79-24.57l-25.69,136.92h-85.18l66.68-354.72H2650Zm29.28,18.92c-5.22,0-10.5,2.15-15.89,6.49s-11.19,11.93-17,22.42q-17.49,30.29-23,100.81c6.38,13.91,16.82,20.82,31.19,20.82,5.4,0,11.08-2.68,17.22-8.09q8.26-8.11,15.13-22.18c10.15-19.3,15.31-43.64,15.66-73.08Q2698.33,1169.21,2674.58,1169.21Z" transform="translate(0 0)"/><path class="cls-5" d="M3021.74,1328.09q-24.18,14.52-56,25.84a199.45,199.45,0,0,1-66.46,12q-22.7-.47-37.63-11.08a73.84,73.84,0,0,1-25.16-24.53,128.46,128.46,0,0,1-7.78-15.73q-3.12-7.83-5.56-15.5a130.26,130.26,0,0,1-2.67-14.77,83.3,83.3,0,0,1-.87-12.27c1.16-27.74,6.73-51.53,16.53-71.42a120.92,120.92,0,0,1,16.52-27.08,142,142,0,0,1,19.66-20.78,139.59,139.59,0,0,1,46.44-27.06q24.36-8.09,46.68-8.09,34.79,0,58,14.32,23.49,14.59,23.89,48.35-0.43,19.42-12.29,33.51c-8.06,10.18-18.91,18.61-32.65,25.22q-42.53,20.83-95.33,19.89a64.9,64.9,0,0,0,0,11.81,49.82,49.82,0,0,0,3.36,17.58,31.61,31.61,0,0,0,11.37,14.59c5.56,4.78,13.45,7.17,23.77,7.17a73.51,73.51,0,0,0,30.21-6.26,248.57,248.57,0,0,0,28.41-13.64Zm-62.62-169.67q-19.75,1.85-31.37,19c-7.6,11.31-13.22,25.22-16.76,41.81q68.72,1.83,71-37.17c0.58-7.28-1.16-13.15-5.39-17.64C2972.22,1160.42,2966.42,1158.42,2959.12,1158.42Z" transform="translate(0 0)"/><path class="cls-5" d="M3174.6,1165.65l0.86,0.92q19.66-24.36,43.32-37c15.6-8,30.45-11.93,44.41-11.93q50.63,0,50.69,50.81c0.29,11-.87,24.07-3.59,39.29L3282.86,1360h-82.4l26.62-148.69a85.53,85.53,0,0,0,.87-11.77c-1.22-9.87-3.48-16.19-6.9-18.94-3.65-2.64-7-4-10.09-4a28.89,28.89,0,0,0-19.6,7.16,60.21,60.21,0,0,0-15,19,194.66,194.66,0,0,0-16.58,51.58L3141.08,1360h-82.39l42.62-236.47h81.76Z" transform="translate(0 0)"/><path d="M3670.62,1392.27h-64.77q-37.66-46.9-78.4-99.32t-65.58-94.72H3461v194h-75.73V1061.17h70.11q37.22,45.77,78.4,99.89,41,53.86,60.25,89.92h0.86V1061.17h75.73v331.09Z" transform="translate(0 0)"/><path d="M4099,1392.27h-99.8V1160.55h-0.93q-37,126.14-75.73,231.71H3862q-39.22-105.55-77.06-231.71h-0.87v231.71h-75.67V1061.17h131.68q33.06,91.35,65.64,203.93h0.93q31.39-112.57,63.6-203.93H4099v331.09Z" transform="translate(0 0)"/><path d="M4318.62,1129.31q-19.75-12.25-47.21-12.28-32.35.92-32.35,20.37c0,4.17,1.8,8.46,5.51,13,3.13,4.64,7.71,9.32,13.62,14.09,11.72,9.42,26.09,21.62,43,36.57q30.36,28.93,41.34,51.16a108.17,108.17,0,0,1,10,48.36c0,7.27-1.51,16.21-4.64,26.87q-5,16.66-18.79,32.83-12.79,16-36,26.39-23.92,11.1-60.13,11.55a191.85,191.85,0,0,1-54.33-7.59c-17.8-4.74-33.17-12.28-46.27-22.55l29.29-54.81a148.07,148.07,0,0,0,24.12,15.08,59.83,59.83,0,0,0,30.85,8.13,46.72,46.72,0,0,0,27.31-8.57c8.35-4.93,12.64-13.59,13-26a40.57,40.57,0,0,0-5.16-19.44,78.91,78.91,0,0,0-13.17-16.68q-17.48-16-38-32.65-26.61-21.78-41.81-40.77-15.31-18.52-15.3-47.94,0.43-40.28,34.67-64.61,32.1-24.11,79.79-24.55c21,0.29,39.32,3,54.68,8.06,14.62,5.07,24.82,9.76,30.79,14Z" transform="translate(0 0)"/><text/><path d="M4400.39,1065.54a44,44,0,0,1,44.53,44.32c0,24.8-19.65,44.32-44.71,44.32s-44.77-19.52-44.77-44.32,19.72-44.32,44.77-44.32h0.18Zm-0.41,7.52c-20.24,0-36.25,16.18-36.25,36.81s16,36.82,36.48,36.82,36.48-16.2,36.48-36.82-16-36.81-36.48-36.81H4400Zm-17.92,10.57h16c9.45,0,14.32,1.38,17.92,3.86a13,13,0,0,1,5.62,11.15c0,8.13-6.09,12.21-11.48,14.1l14.15,22.66H4412.5l-13-21.39H4393v21.39h-10.9v-51.77Zm10.9,23.56h7.13c6.26,0,10.15-3.18,10.15-8.27,0-6.68-5.8-7.93-12.3-7.93h-5v16.19Z" transform="translate(0 0)"/><path class="cls-1" d="M631.42,598.91h270V354H996V980H901.47V687.7h-270V980H537V354h94.46V598.91Z" transform="translate(0 0)"/><path class="cls-1" d="M1114.77,664.18q0-132.19,96.9-227.08,96.5-94.87,231.92-94.87,133.81,0,229.51,95.68,96.09,95.7,96.07,229.92,0,135-96.48,229.09-96.9,94.46-233.95,94.48-121.26,0-217.74-83.93Q1114.76,814.61,1114.77,664.18Zm95.27,1q0,103.71,69.76,170.55Q1349.12,902.6,1440,902.6q98.5,0,166.21-68.06,67.71-68.86,67.73-167.71,0-100.08-66.91-167.73Q1540.5,431,1442.39,431q-97.72,0-165,68.06Q1210,566.35,1210,665.2Z" transform="translate(0 0)"/><path class="cls-1" d="M2100,713.24L2293.89,980H2178.32L1999.49,723.78h-17V980H1888V354h110.7q124.11,0,179.24,46.62,60.79,51.9,60.83,137,0,66.5-38.11,114.35T2100,713.24ZM1982.5,641.47h30q134.2,0,134.24-102.58,0-96.09-130.59-96.1H1982.5V641.47Z" transform="translate(0 0)"/><path class="cls-1" d="M2482.41,354V980h-94.47V354h94.47Z" transform="translate(0 0)"/><path class="cls-1" d="M2741.14,891.24h300.43V980H2585.8l307.38-537.24H2636.07V354h412.41Z" transform="translate(0 0)"/><path class="cls-1" d="M3120.67,664.18q0-132.19,96.9-227.08,96.46-94.87,231.89-94.87,133.87,0,229.51,95.68,96.11,95.7,96.09,229.92,0,135-96.5,229.09-96.89,94.46-233.92,94.48-121.24,0-217.74-83.93Q3120.62,814.61,3120.67,664.18Zm95.28,1q0,103.71,69.7,170.55,69.41,66.85,160.22,66.84,98.46,0,166.19-68.06,67.77-68.86,67.73-167.71,0-100.08-66.91-167.73Q3546.41,431,3448.24,431q-97.68,0-165,68.06Q3215.94,566.35,3215.95,665.2Z" transform="translate(0 0)"/><path class="cls-1" d="M3893.87,980V311.42l456.59,477.64V354h94.46v664.17L3988.39,541.73V980h-94.52Z" transform="translate(0 0)"/></svg>