<svg id="Layer_1" data-name="Layer 1" xmlns="http://www.w3.org/2000/svg" viewBox="0 0 4655.32 1215.79"><defs><style>.cls-1{fill:#237cb7;}.cls-2,.cls-3,.cls-4,.cls-5{stroke:#000;}.cls-2{stroke-width:1.34px;}.cls-3{stroke-width:1.35px;}.cls-4{stroke-width:1.35px;}.cls-5{fill:#fff;stroke-width:10.25px;}</style></defs><title>Meridian</title><path class="cls-1" d="M486.42,0C-916.65,604.72,1036.89,1480.35,2293.86,819.39,1045.42,1307.58-529.34,557.58,486.42,0Z" transform="translate(0)"/><path class="cls-2" d="M2589.08,1102.77q-26.7-.43-47.32-11.08-20.87-10.34-33.75-26.79-26.53-34.7-26.56-72.16,1-57.1,42.73-96.9,40.28-40.22,100.61-41.37,30.8,0,52.3,10.6,21.06,10.92,33.81,27.31A116.37,116.37,0,0,1,2730.16,928a151.46,151.46,0,0,1,5,37.46q0,51.11-36.35,92.72Q2662.25,1101.19,2589.08,1102.77Zm7.94-42.38c1.57,0.28,5-.32,10.27-1.86,5-1.22,10.27-4.87,15.89-10.9a103,103,0,0,0,8.58-12.78,63.18,63.18,0,0,0,7.47-18.12q7-20.87,8.87-59.9c1.22-16.9-.05-31-3.83-42.27-4.06-11.48-10.72-17.34-20.18-17.66a36.69,36.69,0,0,0-24.24,10c-6.9,6.35-12.7,14.71-17.51,25.08q-13.92,33.44-13.92,64.8c0,18.76,2.14,33.89,6.5,45.54Q2581.37,1060.38,2597,1060.38Z" transform="translate(0)"/><path class="cls-3" d="M2874.83,884.85a180.48,180.48,0,0,1,35.55-23.31,99.5,99.5,0,0,1,39.08-9.6q65.49,0.75,65.93,95.45-1.31,73.8-39.95,114.1-37.33,40.09-76.43,40.5c-22.73-.29-42.56-8.55-59.26-24.73l-25.8,137.87h-85.82l67.21-357.23h84.31Zm29.57,19c-5.28,0-10.61,2.2-16,6.52-5.57,4.55-11.31,12.06-17.17,22.62q-17.56,30.48-23.19,101.57c6.44,13.91,16.93,20.92,31.43,20.92,5.45,0,11.19-2.72,17.34-8.18,5.56-5.39,10.67-12.87,15.3-22.32q15.31-29.13,15.72-73.61C2928.19,919.77,2920.29,903.88,2904.4,903.88Z" transform="translate(0)"/><path class="cls-2" d="M3252.33,1064.93q-24.18,14.57-56,25.86a199.23,199.23,0,0,1-66.46,12q-22.7-.43-37.62-11.08a74,74,0,0,1-25.17-24.53,133.37,133.37,0,0,1-7.77-15.71q-3.14-7.82-5.57-15.48a131.26,131.26,0,0,1-2.67-14.79,93.09,93.09,0,0,1-.92-12.23q1.83-41.66,16.52-71.47a123,123,0,0,1,16.58-27.06,143.46,143.46,0,0,1,66.05-47.87q24.43-8.09,46.68-8.09,34.87,0,58.1,14.35c15.6,9.72,23.6,25.83,23.89,48.33q-0.43,19.4-12.29,33.52Q3253.64,966,3233,975.9q-42.53,20.78-95.28,19.88a65,65,0,0,0,0,11.83,51,51,0,0,0,3.31,17.57,31.16,31.16,0,0,0,11.48,14.56c5.52,4.81,13.4,7.19,23.67,7.19a74.13,74.13,0,0,0,30.27-6.24,242.69,242.69,0,0,0,28.41-13.66ZM3189.7,895.26c-13.11,1.25-23.6,7.6-31.37,19q-11.4,17-16.82,41.81,68.79,1.83,71-37.17c0.64-7.24-1.22-13.16-5.39-17.62C3202.87,897.29,3197,895.26,3189.7,895.26Z" transform="translate(0)"/><path class="cls-4" d="M3404,901l0.93,0.92q19.83-24.53,43.66-37.29,23.66-12,44.77-12.06,51.06,0,51.09,51.26,0.52,16.54-3.59,39.61l-27.66,153.43h-83L3457,947a87.2,87.2,0,0,0,.87-11.86c-1.22-10-3.48-16.29-7-19.1-3.6-2.64-7-4-10.15-4a29.34,29.34,0,0,0-19.78,7.22,61.46,61.46,0,0,0-15.07,19.1,193.77,193.77,0,0,0-16.65,52l-19,106.46h-83l43-238.32h82.34Z" transform="translate(0)"/><path class="cls-5" d="M2568.89,1079.8q-26.69-.43-47.31-11.08-20.87-10.38-33.75-26.82-26.53-34.66-26.5-72.16,0.87-57.07,42.74-96.84,40.18-40.22,100.54-41.4c20.59,0,38,3.53,52.31,10.61q21,10.86,33.86,27.3A115.4,115.4,0,0,1,2710,905a152,152,0,0,1,5,37.46q0,51.1-36.36,92.71Q2642,1078.19,2568.89,1079.8Zm7.94-42.38c1.57,0.28,5-.35,10.32-1.86,4.93-1.25,10.21-4.87,15.84-10.93a106.91,106.91,0,0,0,8.64-12.79,64.92,64.92,0,0,0,7.42-18.1q7-20.87,8.87-59.93,1.83-25.3-3.83-42.24-6-17.21-20.18-17.62a36.33,36.33,0,0,0-24.18,9.91q-10.34,9.57-17.57,25.11-13.91,33.5-13.91,64.78c0,18.75,2.21,34,6.49,45.54C2559.1,1031.39,2566.4,1037.42,2576.84,1037.42Z" transform="translate(0)"/><path class="cls-5" d="M2855.7,864.18A176,176,0,0,1,2891,841.07a98.1,98.1,0,0,1,38.8-9.56q65.06,0.69,65.46,94.81-1.21,73.28-39.72,113.28-37,39.8-75.85,40.21-33.83-.43-58.79-24.56l-25.69,136.91H2710l66.68-354.73h83.74ZM2885,883.11q-7.83,0-15.83,6.47-8.35,6.7-17,22.45-17.4,30.27-23,100.8c6.38,13.92,16.82,20.82,31.19,20.82,5.4,0,11.14-2.67,17.22-8.09,5.51-5.42,10.55-12.79,15.13-22.18,10.15-19.31,15.31-43.67,15.66-73.09C2908.59,898.83,2900.87,883.11,2885,883.11Z" transform="translate(0)"/><path class="cls-5" d="M3232.15,1042q-24.18,14.52-56,25.8a198.34,198.34,0,0,1-66.46,12q-22.7-.43-37.57-11.08a73.29,73.29,0,0,1-25.22-24.53,125,125,0,0,1-7.71-15.71c-2.14-5.21-4-10.37-5.62-15.48a134.44,134.44,0,0,1-2.62-14.79,85.22,85.22,0,0,1-.92-12.27c1.16-27.74,6.73-51.51,16.53-71.41a119.56,119.56,0,0,1,16.52-27.08,142.36,142.36,0,0,1,19.66-20.82,139.56,139.56,0,0,1,46.44-27q24.36-8,46.68-8.09,34.79,0,58,14.32,23.49,14.61,23.89,48.36-0.43,19.4-12.29,33.52c-8.06,10.17-18.91,18.61-32.65,25.22q-42.53,20.78-95.33,19.88a64.78,64.78,0,0,0,0,11.81,49.9,49.9,0,0,0,3.36,17.6,31.34,31.34,0,0,0,11.42,14.56c5.51,4.81,13.4,7.19,23.72,7.19a73.64,73.64,0,0,0,30.21-6.26,248.46,248.46,0,0,0,28.47-13.63Zm-62.62-169.67c-13.11,1.22-23.6,7.54-31.32,19q-11.48,17-16.82,41.81,68.72,1.83,71-37.17c0.58-7.28-1.16-13.16-5.39-17.62C3182.69,874.3,3176.83,872.33,3169.52,872.33Z" transform="translate(0)"/><path class="cls-5" d="M3385,879.52l0.86,0.93q19.66-24.36,43.32-37,23.49-12,44.41-11.94,50.71,0,50.69,50.82c0.35,10.93-.87,24.07-3.54,39.29l-27.43,152.31h-82.39l26.56-148.68a85.74,85.74,0,0,0,.87-11.78c-1.22-9.88-3.48-16.2-6.9-18.93-3.59-2.66-7-3.94-10-3.94a29,29,0,0,0-19.66,7.13,61.34,61.34,0,0,0-15,19,192.64,192.64,0,0,0-16.53,51.59l-18.73,105.65h-82.46l42.62-236.5h81.76Z" transform="translate(0)"/><path d="M3881,1106.17h-64.77q-37.58-46.94-78.34-99.33-41-52.41-65.64-94.73h-0.87v194.06h-75.67V775.06h70q37.22,45.79,78.4,99.88,41,53.85,60.25,89.94h0.92V775.06H3881v331.11Z" transform="translate(0)"/><path d="M4309.49,1106.17h-99.85V874.45h-0.93q-37,126.17-75.73,231.72h-60.54q-39.14-105.56-77-231.72h-0.93v231.72h-75.67V775.06h131.75q33.06,91.38,65.64,203.94h0.87q31.39-112.6,63.6-203.94h128.79v331.11Z" transform="translate(0)"/><path d="M4529,843.22q-19.66-12.26-47.21-12.29-32.35.91-32.35,20.35c0,4.18,1.85,8.47,5.51,13a69.14,69.14,0,0,0,13.62,14.12c11.77,9.4,26.16,21.58,43,36.53q30.44,29,41.34,51.18a108.12,108.12,0,0,1,10.09,48.36c0,7.28-1.57,16.2-4.7,26.84q-5,16.66-18.79,32.86c-8.46,10.67-20.53,19.42-36,26.38q-23.92,11.13-60.13,11.54a190.61,190.61,0,0,1-54.33-7.6q-26.61-7.13-46.27-22.53l29.29-54.82a146.2,146.2,0,0,0,24.12,15.07,59.89,59.89,0,0,0,30.91,8.15,46.78,46.78,0,0,0,27.25-8.55q12.53-7.39,13-26a40.36,40.36,0,0,0-5.11-19.43,79.25,79.25,0,0,0-13.22-16.7q-17.48-15.91-38-32.64-26.61-21.75-41.74-40.77C4359,893.9,4354,878,4354,858.32c0.23-26.88,11.83-48.39,34.62-64.63q32.1-24.09,79.79-24.53,31.67,0.44,54.68,8.06c14.62,5,24.82,9.74,30.79,14Z" transform="translate(0)"/><text/><path d="M4610.85,779.44a44,44,0,0,1,44.48,44.33c0,24.79-19.6,44.33-44.71,44.33s-44.77-19.54-44.77-44.33,19.72-44.33,44.77-44.33h0.23Zm-0.4,7.54c-20.3,0-36.31,16.18-36.31,36.8s16,36.79,36.48,36.79,36.48-16.17,36.48-36.79-16-36.8-36.48-36.8h-0.17Zm-17.92,10.55h15.94c9.45,0,14.32,1.4,17.92,3.83a13,13,0,0,1,5.68,11.19c0,8.11-6.15,12.17-11.54,14.08l14.15,22.68H4623l-13-21.4h-6.5v21.4h-10.9V797.52Zm10.9,23.55h7.07c6.26,0,10.15-3.17,10.15-8.24,0-6.73-5.75-7.95-12.3-7.95h-4.93v16.18Z" transform="translate(0)"/><path class="cls-1" d="M606.69,696.17L738.5,23.08l214.9,486.57L1176,23.08l118.36,673.09h-96.9L1137,318.26,951.77,725l-180-407.1L704.4,696.17H606.69Z" transform="translate(0)"/><path class="cls-1" d="M1772.46,158.92h-251V309.34h243.71v88.8H1521.44V607.39h251v88.78H1427V70.11h345.49v88.81Z" transform="translate(0)"/><path class="cls-1" d="M2108.54,429.37l193.85,266.8H2186.82L2008,439.92h-17V696.17h-94.5V70.11h110.68q124.13,0,179.24,46.65,60.8,51.89,60.83,137,0,66.54-38.15,114.34T2108.54,429.37ZM1991,357.58h30q134.21,0,134.18-102.57,0-96.11-130.53-96.09H1991V357.58Z" transform="translate(0)"/><path class="cls-1" d="M2490.9,70.11V696.17h-94.46V70.11h94.46Z" transform="translate(0)"/><path class="cls-1" d="M2641.38,696.17V70.11h131.35q94.46,0,149.2,18.64,58.8,18.27,106.64,62,97,88.37,97,232.35,0,144.3-101,233.54-50.62,44.59-106.23,62-51.83,17.48-147.17,17.46H2641.38Zm94.47-88.78h42.56q63.67,0,105.82-13.39a215.23,215.23,0,0,0,76.26-45q69.68-63.67,69.7-165.85,0-103-68.89-167.06-62.1-57.19-182.89-57.17h-42.56V607.39Z" transform="translate(0)"/><path class="cls-1" d="M3338.79,70.11V696.17h-94.52V70.11h94.52Z" transform="translate(0)"/><path class="cls-1" d="M3857,544.12h-268l-69.76,152H3417.42L3727.18,30.79l298.87,665.38H3922.66Zm-38.5-88.8-92.89-212.88-97.31,212.88h190.2Z" transform="translate(0)"/><path class="cls-1" d="M4104.33,696.17V27.55l456.53,477.64V70.11h94.46V734.27L4198.79,257.84V696.17h-94.46Z" transform="translate(0)"/></svg>