<?xml version="1.0" encoding="UTF-8"?><svg xmlns="http://www.w3.org/2000/svg" xmlns:xlink="http://www.w3.org/1999/xlink" fill-opacity="1" color-rendering="auto" color-interpolation="auto" text-rendering="auto" stroke="black" stroke-linecap="square" width="755" stroke-miterlimit="10" shape-rendering="auto" stroke-opacity="1" fill="black" stroke-dasharray="none" font-weight="normal" stroke-width="1" height="338" font-family="'Dialog'" font-style="normal" stroke-linejoin="miter" font-size="12px" stroke-dashoffset="0" image-rendering="auto">
  <!--Generated by ySVG 2.5-->
  <defs id="genericDefs"/>
  <g>
    <defs id="defs1">
      <clipPath clipPathUnits="userSpaceOnUse" id="clipPath1">
        <path d="M0 0 L755 0 L755 338 L0 338 L0 0 Z"/>
      </clipPath>
      <clipPath clipPathUnits="userSpaceOnUse" id="clipPath2">
        <path d="M33 268 L788 268 L788 606 L33 606 L33 268 Z"/>
      </clipPath>
    </defs>
    <g fill="white" text-rendering="geometricPrecision" shape-rendering="geometricPrecision" transform="translate(-33,-268)" stroke="white">
      <rect x="33" width="755" height="338" y="268" clip-path="url(#clipPath2)" stroke="none"/>
    </g>
    <g fill="rgb(141,198,63)" text-rendering="geometricPrecision" shape-rendering="geometricPrecision" transform="matrix(1,0,0,1,-33,-268)" stroke="rgb(141,198,63)">
      <rect x="48" y="283.5" clip-path="url(#clipPath2)" width="725" rx="4" ry="4" height="70" stroke="none"/>
    </g>
    <g font-size="16px" stroke-linecap="butt" transform="matrix(1,0,0,1,-33,-268)" text-rendering="geometricPrecision" font-family="'Khula'" shape-rendering="geometricPrecision" font-weight="bold" stroke-miterlimit="1.45">
      <text x="327.0039" xml:space="preserve" y="322.75" clip-path="url(#clipPath2)" stroke="none">OpenNMS Components</text>
    </g>
    <g transform="matrix(1,0,0,1,-33,-268)" fill-opacity="0.4667" fill="rgb(255,178,56)" text-rendering="geometricPrecision" shape-rendering="geometricPrecision" stroke="rgb(255,178,56)" stroke-opacity="0.4667">
      <rect x="48" y="469" clip-path="url(#clipPath2)" width="102" rx="4" ry="4" height="87" stroke="none"/>
    </g>
    <g font-size="14px" stroke-linecap="butt" transform="matrix(1,0,0,1,-33,-268)" text-rendering="geometricPrecision" font-family="'Khula'" shape-rendering="geometricPrecision" font-weight="bold" stroke-miterlimit="1.45">
      <text x="63.0977" xml:space="preserve" y="516.2188" clip-path="url(#clipPath2)" stroke="none">PostgreSQL</text>
    </g>
    <g transform="matrix(1,0,0,1,-33,-268)" fill-opacity="0.4667" fill="rgb(39,170,225)" text-rendering="geometricPrecision" shape-rendering="geometricPrecision" stroke="rgb(39,170,225)" stroke-opacity="0.4667">
      <rect x="163" y="469" clip-path="url(#clipPath2)" width="102" rx="4" ry="4" height="87" stroke="none"/>
    </g>
    <g font-size="14px" stroke-linecap="butt" transform="matrix(1,0,0,1,-33,-268)" text-rendering="geometricPrecision" font-family="'Khula'" shape-rendering="geometricPrecision" font-weight="bold" stroke-miterlimit="1.45">
      <text x="188.5635" xml:space="preserve" y="516.2188" clip-path="url(#clipPath2)" stroke="none">RRDtool</text>
    </g>
    <g fill="rgb(255,178,56)" text-rendering="geometricPrecision" shape-rendering="geometricPrecision" transform="matrix(1,0,0,1,-33,-268)" stroke="rgb(255,178,56)">
      <rect x="48" y="415.5" clip-path="url(#clipPath2)" width="102" rx="4" ry="4" height="45" stroke="none"/>
    </g>
    <g font-size="16px" stroke-linecap="butt" transform="matrix(1,0,0,1,-33,-268)" text-rendering="geometricPrecision" font-family="'Khula'" shape-rendering="geometricPrecision" font-weight="bold" stroke-miterlimit="1.45">
      <text x="62.7617" xml:space="preserve" y="442.25" clip-path="url(#clipPath2)" stroke="none">Hibernate</text>
    </g>
    <g fill="rgb(39,170,225)" text-rendering="geometricPrecision" shape-rendering="geometricPrecision" transform="matrix(1,0,0,1,-33,-268)" stroke="rgb(39,170,225)">
      <rect x="163" y="415.5" clip-path="url(#clipPath2)" width="332" rx="4" ry="4" height="45" stroke="none"/>
    </g>
    <g font-size="16px" stroke-linecap="butt" transform="matrix(1,0,0,1,-33,-268)" text-rendering="geometricPrecision" font-family="'Khula'" shape-rendering="geometricPrecision" font-weight="bold" stroke-miterlimit="1.45">
      <text x="273.7695" xml:space="preserve" y="442.25" clip-path="url(#clipPath2)" stroke="none">Time Series API</text>
    </g>
    <g transform="matrix(1,0,0,1,-33,-268)" fill-opacity="0.4667" fill="rgb(39,170,225)" text-rendering="geometricPrecision" shape-rendering="geometricPrecision" stroke="rgb(39,170,225)" stroke-opacity="0.4667">
      <rect x="278" y="469" clip-path="url(#clipPath2)" width="102" rx="4" ry="4" height="87" stroke="none"/>
    </g>
    <g font-size="14px" stroke-linecap="butt" transform="matrix(1,0,0,1,-33,-268)" text-rendering="geometricPrecision" font-family="'Khula'" shape-rendering="geometricPrecision" font-weight="bold" stroke-miterlimit="1.45">
      <text x="308.8101" xml:space="preserve" y="516.2188" clip-path="url(#clipPath2)" stroke="none">JRobin</text>
    </g>
    <g transform="matrix(1,0,0,1,-33,-268)" fill-opacity="0.4667" fill="rgb(39,170,225)" text-rendering="geometricPrecision" shape-rendering="geometricPrecision" stroke="rgb(39,170,225)" stroke-opacity="0.4667">
      <rect x="393" y="469" clip-path="url(#clipPath2)" width="102" rx="4" ry="4" height="40" stroke="none"/>
    </g>
    <g font-size="14px" stroke-linecap="butt" transform="matrix(1,0,0,1,-33,-268)" text-rendering="geometricPrecision" font-family="'Khula'" shape-rendering="geometricPrecision" font-weight="bold" stroke-miterlimit="1.45">
      <text x="422.6479" xml:space="preserve" y="492.7188" clip-path="url(#clipPath2)" stroke="none">NewTS</text>
    </g>
    <g fill="rgb(141,198,63)" text-rendering="geometricPrecision" shape-rendering="geometricPrecision" transform="matrix(1,0,0,1,-33,-268)" stroke="rgb(141,198,63)">
      <rect x="508" y="415.5" clip-path="url(#clipPath2)" width="126" rx="4" ry="4" height="45" stroke="none"/>
    </g>
    <g font-size="16px" stroke-linecap="butt" transform="matrix(1,0,0,1,-33,-268)" text-rendering="geometricPrecision" font-family="'Khula'" shape-rendering="geometricPrecision" font-weight="bold" stroke-miterlimit="1.45">
      <text x="533.5234" xml:space="preserve" y="442.25" clip-path="url(#clipPath2)" stroke="none">Properties</text>
    </g>
    <g transform="matrix(1,0,0,1,-33,-268)" fill-opacity="0.4667" fill="rgb(141,198,63)" text-rendering="geometricPrecision" shape-rendering="geometricPrecision" stroke="rgb(141,198,63)" stroke-opacity="0.4667">
      <rect x="508" y="469" clip-path="url(#clipPath2)" width="265" rx="4" ry="4" height="122" stroke="none"/>
    </g>
    <g text-rendering="geometricPrecision" stroke-miterlimit="1.45" shape-rendering="geometricPrecision" font-family="'Khula'" transform="matrix(1,0,0,1,-33,-268)" stroke-linecap="butt">
      <text x="605.9971" xml:space="preserve" y="533.1875" clip-path="url(#clipPath2)" stroke="none">Configuration</text>
    </g>
    <g transform="matrix(1,0,0,1,-33,-268)" fill-opacity="0.4667" fill="rgb(39,170,225)" text-rendering="geometricPrecision" shape-rendering="geometricPrecision" stroke="rgb(39,170,225)" stroke-opacity="0.4667">
      <rect x="393" y="516" clip-path="url(#clipPath2)" width="102" rx="4" ry="4" height="40" stroke="none"/>
    </g>
    <g font-size="14px" stroke-linecap="butt" transform="matrix(1,0,0,1,-33,-268)" text-rendering="geometricPrecision" font-family="'Khula'" shape-rendering="geometricPrecision" font-weight="bold" stroke-miterlimit="1.45">
      <text x="411.3276" xml:space="preserve" y="539.7188" clip-path="url(#clipPath2)" stroke="none">Cassandra</text>
      <text x="238.8096" font-size="12px" y="580.1875" clip-path="url(#clipPath2)" font-style="italic" stroke="none" font-weight="normal" xml:space="preserve">Options persisting Time Series Data</text>
      <rect x="163" y="563" clip-path="url(#clipPath2)" fill="none" width="332" rx="4" ry="4" height="28"/>
    </g>
    <g fill="rgb(141,198,63)" text-rendering="geometricPrecision" shape-rendering="geometricPrecision" transform="matrix(1,0,0,1,-33,-268)" stroke="rgb(141,198,63)">
      <rect x="48" y="362" clip-path="url(#clipPath2)" width="725" rx="4" ry="4" height="45" stroke="none"/>
    </g>
    <g font-size="16px" stroke-linecap="butt" transform="matrix(1,0,0,1,-33,-268)" text-rendering="geometricPrecision" font-family="'Khula'" shape-rendering="geometricPrecision" font-weight="bold" stroke-miterlimit="1.45">
      <text x="345.3789" xml:space="preserve" y="388.75" clip-path="url(#clipPath2)" stroke="none">Data Access Layer</text>
    </g>
    <g fill="rgb(255,178,56)" text-rendering="geometricPrecision" shape-rendering="geometricPrecision" transform="matrix(1,0,0,1,-33,-268)" stroke="rgb(255,178,56)">
      <rect x="48" y="563" clip-path="url(#clipPath2)" width="102" rx="4" ry="4" height="28" stroke="none"/>
    </g>
    <g font-size="16px" stroke-linecap="butt" transform="matrix(1,0,0,1,-33,-268)" text-rendering="geometricPrecision" font-family="'Khula'" shape-rendering="geometricPrecision" font-weight="bold" stroke-miterlimit="1.45">
      <text x="64.5234" xml:space="preserve" y="581.25" clip-path="url(#clipPath2)" stroke="none">Liquibase</text>
    </g>
    <g fill="rgb(141,198,63)" text-rendering="geometricPrecision" shape-rendering="geometricPrecision" transform="matrix(1,0,0,1,-33,-268)" stroke="rgb(141,198,63)">
      <rect x="647" y="415.5" clip-path="url(#clipPath2)" width="126" rx="4" ry="4" height="45" stroke="none"/>
    </g>
    <g font-size="16px" stroke-linecap="butt" transform="matrix(1,0,0,1,-33,-268)" text-rendering="geometricPrecision" font-family="'Khula'" shape-rendering="geometricPrecision" font-weight="bold" stroke-miterlimit="1.45">
      <text x="693.0117" xml:space="preserve" y="442.25" clip-path="url(#clipPath2)" stroke="none">JAXB</text>
    </g>
  </g>
</svg>
