<?xml version="1.0" encoding="UTF-8"?><svg xmlns="http://www.w3.org/2000/svg" xmlns:xlink="http://www.w3.org/1999/xlink" fill-opacity="1" color-rendering="auto" color-interpolation="auto" text-rendering="auto" stroke="black" stroke-linecap="square" width="1920" stroke-miterlimit="10" shape-rendering="auto" stroke-opacity="1" fill="black" stroke-dasharray="none" font-weight="normal" stroke-width="1" height="1050" font-family="'Dialog'" font-style="normal" stroke-linejoin="miter" font-size="12px" stroke-dashoffset="0" image-rendering="auto">
  <!--Generated by ySVG 2.5-->
  <defs id="genericDefs"/>
  <g>
    <defs id="defs1">
      <clipPath clipPathUnits="userSpaceOnUse" id="clipPath1">
        <path d="M0 0 L1920 0 L1920 1050 L0 1050 L0 0 Z"/>
      </clipPath>
      <clipPath clipPathUnits="userSpaceOnUse" id="clipPath2">
        <path d="M77 34 L717 34 L717 384 L77 384 L77 34 Z"/>
      </clipPath>
    </defs>
    <g fill="white" text-rendering="geometricPrecision" shape-rendering="geometricPrecision" transform="scale(3,3) translate(-77,-34)" stroke="white">
      <rect x="77" width="640" height="350" y="34" clip-path="url(#clipPath2)" stroke="none"/>
    </g>
    <g fill="rgb(39,170,225)" text-rendering="geometricPrecision" shape-rendering="geometricPrecision" transform="matrix(3,0,0,3,-231,-102)" stroke="rgb(39,170,225)">
      <rect x="214" y="39" clip-path="url(#clipPath2)" width="102" rx="4" ry="4" height="87" stroke="none"/>
    </g>
    <g font-size="14px" stroke-linecap="butt" transform="matrix(3,0,0,3,-231,-102)" text-rendering="geometricPrecision" font-family="'Khula'" shape-rendering="geometricPrecision" font-weight="bold" stroke-miterlimit="1.45">
      <text x="229.1011" xml:space="preserve" y="86.2188" clip-path="url(#clipPath2)" stroke="none">Application</text>
    </g>
    <g fill="rgb(39,170,225)" text-rendering="geometricPrecision" shape-rendering="geometricPrecision" transform="matrix(3,0,0,3,-231,-102)" stroke="rgb(39,170,225)">
      <rect x="346" y="39" clip-path="url(#clipPath2)" width="234" rx="4" ry="4" height="87" stroke="none"/>
    </g>
    <g font-size="14px" stroke-linecap="butt" transform="matrix(3,0,0,3,-231,-102)" text-rendering="geometricPrecision" font-family="'Khula'" shape-rendering="geometricPrecision" font-weight="bold" stroke-miterlimit="1.45">
      <text x="424.1958" xml:space="preserve" y="86.2188" clip-path="url(#clipPath2)" stroke="none">SNMP Agent</text>
    </g>
    <g fill="rgb(39,170,225)" text-rendering="geometricPrecision" shape-rendering="geometricPrecision" transform="matrix(3,0,0,3,-231,-102)" stroke="rgb(39,170,225)">
      <rect x="610" y="39" clip-path="url(#clipPath2)" width="102" rx="4" ry="4" height="87" stroke="none"/>
    </g>
    <g font-size="14px" stroke-linecap="butt" transform="matrix(3,0,0,3,-231,-102)" text-rendering="geometricPrecision" font-family="'Khula'" shape-rendering="geometricPrecision" font-weight="bold" stroke-miterlimit="1.45">
      <text x="621.1191" xml:space="preserve" y="86.2188" clip-path="url(#clipPath2)" stroke="none">Syslog Agent</text>
    </g>
    <g fill="rgb(141,198,63)" text-rendering="geometricPrecision" shape-rendering="geometricPrecision" transform="matrix(3,0,0,3,-231,-102)" stroke="rgb(141,198,63)">
      <rect x="610" y="211" clip-path="url(#clipPath2)" width="102" rx="4" ry="4" height="69" stroke="none"/>
    </g>
    <g font-size="16px" stroke-linecap="butt" transform="matrix(3,0,0,3,-231,-102)" text-rendering="geometricPrecision" font-family="'Khula'" shape-rendering="geometricPrecision" font-weight="bold" stroke-miterlimit="1.45">
      <text x="634.0898" xml:space="preserve" y="249.75" clip-path="url(#clipPath2)" stroke="none">Syslogd</text>
    </g>
    <g fill="rgb(39,170,225)" text-rendering="geometricPrecision" shape-rendering="geometricPrecision" transform="matrix(3,0,0,3,-231,-102)" stroke="rgb(39,170,225)">
      <rect x="82" y="39" clip-path="url(#clipPath2)" width="102" rx="4" ry="4" height="87" stroke="none"/>
    </g>
    <g font-size="14px" stroke-linecap="butt" transform="matrix(3,0,0,3,-231,-102)" text-rendering="geometricPrecision" font-family="'Khula'" shape-rendering="geometricPrecision" font-weight="bold" stroke-miterlimit="1.45">
      <text x="105.3623" xml:space="preserve" y="76.7852" clip-path="url(#clipPath2)" stroke="none">Network</text>
      <text x="112.1504" xml:space="preserve" y="95.6523" clip-path="url(#clipPath2)" stroke="none">Device</text>
    </g>
    <g fill="rgb(141,198,63)" text-rendering="geometricPrecision" shape-rendering="geometricPrecision" transform="matrix(3,0,0,3,-231,-102)" stroke="rgb(141,198,63)">
      <rect x="82" y="211" clip-path="url(#clipPath2)" width="366" rx="4" ry="4" height="69" stroke="none"/>
    </g>
    <g font-size="16px" stroke-linecap="butt" transform="matrix(3,0,0,3,-231,-102)" text-rendering="geometricPrecision" font-family="'Khula'" shape-rendering="geometricPrecision" font-weight="bold" stroke-miterlimit="1.45">
      <text x="239.5547" xml:space="preserve" y="249.75" clip-path="url(#clipPath2)" stroke="none">Pollerd</text>
    </g>
    <g fill="rgb(141,198,63)" text-rendering="geometricPrecision" shape-rendering="geometricPrecision" transform="matrix(3,0,0,3,-231,-102)" stroke="rgb(141,198,63)">
      <rect x="478" y="211" clip-path="url(#clipPath2)" width="102" rx="4" ry="4" height="69" stroke="none"/>
    </g>
    <g font-size="16px" stroke-linecap="butt" transform="matrix(3,0,0,3,-231,-102)" text-rendering="geometricPrecision" font-family="'Khula'" shape-rendering="geometricPrecision" font-weight="bold" stroke-miterlimit="1.45">
      <text x="508.1055" xml:space="preserve" y="249.75" clip-path="url(#clipPath2)" stroke="none">Trapd</text>
    </g>
    <g transform="matrix(3,0,0,3,-231,-102)" fill-opacity="0.4667" fill="rgb(141,198,63)" text-rendering="geometricPrecision" shape-rendering="geometricPrecision" stroke="rgb(141,198,63)" stroke-opacity="0.4667">
      <rect x="82" y="310" clip-path="url(#clipPath2)" width="630" rx="4" ry="4" height="69" stroke="none"/>
    </g>
    <g font-size="16px" stroke-linecap="butt" transform="matrix(3,0,0,3,-231,-102)" text-rendering="geometricPrecision" font-family="'Khula'" shape-rendering="geometricPrecision" font-weight="bold" stroke-miterlimit="1.45">
      <text x="372.2109" xml:space="preserve" y="348.75" clip-path="url(#clipPath2)" stroke="none">Eventd</text>
    </g>
    <g stroke-linecap="butt" transform="matrix(3,0,0,3,-231,-102)" fill="rgb(39,170,225)" text-rendering="geometricPrecision" shape-rendering="geometricPrecision" stroke="rgb(39,170,225)" stroke-width="3" stroke-miterlimit="1.45">
      <path fill="none" d="M661 125.9958 L661 200.985" clip-path="url(#clipPath2)"/>
      <path d="M661 210.985 L667.25 195.985 L661 199.735 L654.75 195.985 Z" clip-path="url(#clipPath2)" stroke="none"/>
      <path fill="none" d="M402.7761 210.9694 L402.7761 136.0024" clip-path="url(#clipPath2)" stroke="rgb(141,198,63)"/>
      <path fill="rgb(141,198,63)" d="M402.7761 126.0024 L396.5261 141.0024 L402.7761 137.2524 L409.0261 141.0024 Z" clip-path="url(#clipPath2)" stroke="none"/>
      <path fill="none" d="M265 210.9978 L265 136.0123" clip-path="url(#clipPath2)" stroke="rgb(141,198,63)"/>
      <path fill="rgb(141,198,63)" d="M265 126.0123 L258.75 141.0123 L265 137.2623 L271.25 141.0123 Z" clip-path="url(#clipPath2)" stroke="none"/>
      <path fill="none" d="M133 210.9764 L133 136.0051" clip-path="url(#clipPath2)" stroke="rgb(141,198,63)"/>
      <path fill="rgb(141,198,63)" d="M133 126.0051 L126.75 141.0051 L133 137.2551 L139.25 141.0051 Z" clip-path="url(#clipPath2)" stroke="none"/>
      <path fill="none" d="M529 126.0234 L529 200.993" clip-path="url(#clipPath2)"/>
      <path d="M529 210.993 L535.25 195.993 L529 199.743 L522.75 195.993 Z" clip-path="url(#clipPath2)" stroke="none"/>
    </g>
  </g>
</svg>
