<?xml version="1.0" encoding="UTF-8"?><svg xmlns="http://www.w3.org/2000/svg" xmlns:xlink="http://www.w3.org/1999/xlink" fill-opacity="1" color-rendering="auto" color-interpolation="auto" text-rendering="auto" stroke="black" stroke-linecap="square" width="2691" stroke-miterlimit="10" shape-rendering="auto" stroke-opacity="1" fill="black" stroke-dasharray="none" font-weight="normal" stroke-width="1" height="2088" font-family="'Dialog'" font-style="normal" stroke-linejoin="miter" font-size="12px" stroke-dashoffset="0" image-rendering="auto">
  <!--Generated by ySVG 2.5-->
  <defs id="genericDefs"/>
  <g>
    <defs id="defs1">
      <clipPath clipPathUnits="userSpaceOnUse" id="clipPath1">
        <path d="M0 0 L2691 0 L2691 2088 L0 2088 L0 0 Z"/>
      </clipPath>
      <clipPath clipPathUnits="userSpaceOnUse" id="clipPath2">
        <path d="M-74 -17 L823 -17 L823 679 L-74 679 L-74 -17 Z"/>
      </clipPath>
    </defs>
    <g fill="white" text-rendering="geometricPrecision" shape-rendering="geometricPrecision" transform="scale(3,3) translate(74,17)" stroke="white">
      <rect x="-74" width="897" height="696" y="-17" clip-path="url(#clipPath2)" stroke="none"/>
    </g>
    <g fill="rgb(115,210,22)" text-rendering="geometricPrecision" shape-rendering="geometricPrecision" transform="matrix(3,0,0,3,222,51)" stroke="rgb(115,210,22)">
      <rect x="-68.5" y="223.444" clip-path="url(#clipPath2)" width="431.0402" rx="4" ry="4" height="80" stroke="none"/>
    </g>
    <g font-size="16px" stroke-linecap="butt" transform="matrix(3,0,0,3,222,51)" text-rendering="geometricPrecision" font-family="'Helvetica Neue'" shape-rendering="geometricPrecision" font-weight="bold" stroke-miterlimit="1.45">
      <text x="78.2681" xml:space="preserve" y="269.508" clip-path="url(#clipPath2)" stroke="none">Event Persistence</text>
    </g>
    <g fill="rgb(114,159,207)" text-rendering="geometricPrecision" shape-rendering="geometricPrecision" transform="matrix(3,0,0,3,222,51)" stroke="rgb(114,159,207)">
      <rect x="-68.5" y="343.888" clip-path="url(#clipPath2)" width="886.4513" rx="4" ry="4" height="45" stroke="none"/>
    </g>
    <g font-size="16px" stroke-linecap="butt" transform="matrix(3,0,0,3,222,51)" text-rendering="geometricPrecision" font-family="'Helvetica Neue'" shape-rendering="geometricPrecision" font-weight="bold" stroke-miterlimit="1.45">
      <text x="347.7817" xml:space="preserve" y="372.452" clip-path="url(#clipPath2)" stroke="none">Pollerd</text>
    </g>
    <g transform="matrix(3,0,0,3,222,51)" fill-opacity="0.4667" fill="rgb(114,159,207)" text-rendering="geometricPrecision" shape-rendering="geometricPrecision" stroke="rgb(114,159,207)" stroke-opacity="0.4667">
      <rect x="-68.5" y="399.638" clip-path="url(#clipPath2)" width="886.4513" rx="4" ry="4" height="30" stroke="none"/>
    </g>
    <g font-size="16px" stroke-linecap="butt" transform="matrix(3,0,0,3,222,51)" text-rendering="geometricPrecision" font-family="'Helvetica Neue'" shape-rendering="geometricPrecision" stroke-miterlimit="1.45">
      <text x="318.7177" xml:space="preserve" y="420.55" clip-path="url(#clipPath2)" stroke="none">Monitor Plugins</text>
    </g>
    <g fill="rgb(245,245,245)" text-rendering="geometricPrecision" shape-rendering="geometricPrecision" transform="matrix(3,0,0,3,222,51)" stroke="rgb(245,245,245)">
      <rect x="-68.5" y="439.8104" clip-path="url(#clipPath2)" width="198.1914" rx="4" ry="4" height="234.0182" stroke="none"/>
    </g>
    <g transform="matrix(3,0,0,3,222,51)" fill-opacity="0.4667" fill="rgb(114,159,207)" text-rendering="geometricPrecision" shape-rendering="geometricPrecision" stroke="rgb(114,159,207)" stroke-opacity="0.4667">
      <rect x="-68.5" width="198.1914" height="21.475" y="439.8104" clip-path="url(#clipPath2)" stroke="none"/>
    </g>
    <g font-size="15px" stroke-linecap="butt" transform="matrix(3,0,0,3,222,51)" text-rendering="geometricPrecision" font-family="'Helvetica Neue'" shape-rendering="geometricPrecision" stroke-miterlimit="1.45">
      <text x="-11.5236" xml:space="preserve" y="456.0904" clip-path="url(#clipPath2)" stroke="none">Management Agents</text>
    </g>
    <g stroke-linecap="butt" transform="matrix(3,0,0,3,222,51)" fill-opacity="0.4667" fill="rgb(114,159,207)" text-rendering="geometricPrecision" shape-rendering="geometricPrecision" stroke="rgb(114,159,207)" stroke-opacity="0.4667" stroke-miterlimit="1.45">
      <rect x="-68.5" y="439.8104" clip-path="url(#clipPath2)" fill="none" width="198.1914" rx="4" ry="4" height="234.0182"/>
    </g>
    <g fill="white" text-rendering="geometricPrecision" shape-rendering="geometricPrecision" transform="matrix(3,0,0,3,222,51)" stroke="white">
      <rect x="-52.5" y="476.2854" clip-path="url(#clipPath2)" width="79.8086" rx="4" ry="4" height="30" stroke="none"/>
    </g>
    <g font-size="14px" stroke-linecap="butt" transform="matrix(3,0,0,3,222,51)" text-rendering="geometricPrecision" font-family="'Helvetica Neue'" shape-rendering="geometricPrecision" stroke-miterlimit="1.45">
      <text x="-32.8187" xml:space="preserve" y="496.4584" clip-path="url(#clipPath2)" stroke="none">SNMP</text>
      <rect x="-52.5" y="476.2854" clip-path="url(#clipPath2)" fill="none" width="79.8086" rx="4" ry="4" height="30"/>
    </g>
    <g fill="white" text-rendering="geometricPrecision" shape-rendering="geometricPrecision" transform="matrix(3,0,0,3,222,51)" stroke="white">
      <rect x="34.6914" y="476.2854" clip-path="url(#clipPath2)" width="79.8086" rx="4" ry="4" height="30" stroke="none"/>
    </g>
    <g font-size="14px" stroke-linecap="butt" transform="matrix(3,0,0,3,222,51)" text-rendering="geometricPrecision" font-family="'Helvetica Neue'" shape-rendering="geometricPrecision" stroke-miterlimit="1.45">
      <text x="60.5887" xml:space="preserve" y="496.4584" clip-path="url(#clipPath2)" stroke="none">JMX</text>
      <rect x="34.6914" y="476.2854" clip-path="url(#clipPath2)" fill="none" width="79.8086" rx="4" ry="4" height="30"/>
    </g>
    <g fill="white" text-rendering="geometricPrecision" shape-rendering="geometricPrecision" transform="matrix(3,0,0,3,222,51)" stroke="white">
      <rect x="34.6914" y="554.3021" clip-path="url(#clipPath2)" width="79.8086" rx="4" ry="4" height="30" stroke="none"/>
    </g>
    <g font-size="14px" stroke-linecap="butt" transform="matrix(3,0,0,3,222,51)" text-rendering="geometricPrecision" font-family="'Helvetica Neue'" shape-rendering="geometricPrecision" stroke-miterlimit="1.45">
      <text x="47.1067" xml:space="preserve" y="574.475" clip-path="url(#clipPath2)" stroke="none">WS-Man</text>
      <rect x="34.6914" y="554.3021" clip-path="url(#clipPath2)" fill="none" width="79.8086" rx="4" ry="4" height="30"/>
    </g>
    <g fill="white" text-rendering="geometricPrecision" shape-rendering="geometricPrecision" transform="matrix(3,0,0,3,222,51)" stroke="white">
      <rect x="34.6914" y="628.8286" clip-path="url(#clipPath2)" width="79.8086" rx="4" ry="4" height="30" stroke="none"/>
    </g>
    <g font-size="14px" stroke-linecap="butt" transform="matrix(3,0,0,3,222,51)" text-rendering="geometricPrecision" font-family="'Helvetica Neue'" shape-rendering="geometricPrecision" stroke-miterlimit="1.45">
      <text x="38.5877" xml:space="preserve" y="649.0016" clip-path="url(#clipPath2)" stroke="none">NSClient++</text>
      <rect x="34.6914" y="628.8286" clip-path="url(#clipPath2)" fill="none" width="79.8086" rx="4" ry="4" height="30"/>
    </g>
    <g fill="white" text-rendering="geometricPrecision" shape-rendering="geometricPrecision" transform="matrix(3,0,0,3,222,51)" stroke="white">
      <rect x="-52.5" y="628.8286" clip-path="url(#clipPath2)" width="79.8086" rx="4" ry="4" height="30" stroke="none"/>
    </g>
    <g font-size="14px" stroke-linecap="butt" transform="matrix(3,0,0,3,222,51)" text-rendering="geometricPrecision" font-family="'Helvetica Neue'" shape-rendering="geometricPrecision" stroke-miterlimit="1.45">
      <text x="-31.2577" xml:space="preserve" y="649.0016" clip-path="url(#clipPath2)" stroke="none">NRPE</text>
      <rect x="-52.5" y="628.8286" clip-path="url(#clipPath2)" fill="none" width="79.8086" rx="4" ry="4" height="30"/>
    </g>
    <g fill="white" text-rendering="geometricPrecision" shape-rendering="geometricPrecision" transform="matrix(3,0,0,3,222,51)" stroke="white">
      <rect x="-52.5" y="553.8021" clip-path="url(#clipPath2)" width="79.8086" rx="4" ry="4" height="30" stroke="none"/>
    </g>
    <g font-size="14px" stroke-linecap="butt" transform="matrix(3,0,0,3,222,51)" text-rendering="geometricPrecision" font-family="'Helvetica Neue'" shape-rendering="geometricPrecision" stroke-miterlimit="1.45">
      <text x="-26.9877" xml:space="preserve" y="573.975" clip-path="url(#clipPath2)" stroke="none">WMI</text>
      <rect x="-52.5" y="553.8021" clip-path="url(#clipPath2)" fill="none" width="79.8086" rx="4" ry="4" height="30"/>
    </g>
    <g fill="rgb(245,245,245)" text-rendering="geometricPrecision" shape-rendering="geometricPrecision" transform="matrix(3,0,0,3,222,51)" stroke="rgb(245,245,245)">
      <rect x="153.3892" y="439.703" clip-path="url(#clipPath2)" width="183.3253" rx="4" ry="4" height="234.1256" stroke="none"/>
    </g>
    <g transform="matrix(3,0,0,3,222,51)" fill-opacity="0.4667" fill="rgb(114,159,207)" text-rendering="geometricPrecision" shape-rendering="geometricPrecision" stroke="rgb(114,159,207)" stroke-opacity="0.4667">
      <rect x="153.3892" width="183.3253" height="21.475" y="439.703" clip-path="url(#clipPath2)" stroke="none"/>
    </g>
    <g font-size="15px" stroke-linecap="butt" transform="matrix(3,0,0,3,222,51)" text-rendering="geometricPrecision" font-family="'Helvetica Neue'" shape-rendering="geometricPrecision" stroke-miterlimit="1.45">
      <text x="214.1745" xml:space="preserve" y="455.983" clip-path="url(#clipPath2)" stroke="none">Generic Protocols</text>
    </g>
    <g stroke-linecap="butt" transform="matrix(3,0,0,3,222,51)" fill-opacity="0.4667" fill="rgb(114,159,207)" text-rendering="geometricPrecision" shape-rendering="geometricPrecision" stroke="rgb(114,159,207)" stroke-opacity="0.4667" stroke-miterlimit="1.45">
      <rect x="153.3892" y="439.703" clip-path="url(#clipPath2)" fill="none" width="183.3253" rx="4" ry="4" height="234.1256"/>
    </g>
    <g fill="white" text-rendering="geometricPrecision" shape-rendering="geometricPrecision" transform="matrix(3,0,0,3,222,51)" stroke="white">
      <rect x="171.4059" y="527.7739" clip-path="url(#clipPath2)" width="144.8086" rx="4" ry="4" height="30" stroke="none"/>
    </g>
    <g font-size="14px" stroke-linecap="butt" transform="matrix(3,0,0,3,222,51)" text-rendering="geometricPrecision" font-family="'Helvetica Neue'" shape-rendering="geometricPrecision" stroke-miterlimit="1.45">
      <text x="215.1662" xml:space="preserve" y="547.9469" clip-path="url(#clipPath2)" stroke="none">TCP Port</text>
      <rect x="171.4059" y="527.7739" clip-path="url(#clipPath2)" fill="none" width="144.8086" rx="4" ry="4" height="30"/>
    </g>
    <g fill="white" text-rendering="geometricPrecision" shape-rendering="geometricPrecision" transform="matrix(3,0,0,3,222,51)" stroke="white">
      <rect x="171.4059" y="476.2854" clip-path="url(#clipPath2)" width="144.8086" rx="4" ry="4" height="30" stroke="none"/>
    </g>
    <g font-size="14px" stroke-linecap="butt" transform="matrix(3,0,0,3,222,51)" text-rendering="geometricPrecision" font-family="'Helvetica Neue'" shape-rendering="geometricPrecision" stroke-miterlimit="1.45">
      <text x="226.3102" xml:space="preserve" y="496.4584" clip-path="url(#clipPath2)" stroke="none">ICMP</text>
      <rect x="171.4059" y="476.2854" clip-path="url(#clipPath2)" fill="none" width="144.8086" rx="4" ry="4" height="30"/>
    </g>
    <g fill="white" text-rendering="geometricPrecision" shape-rendering="geometricPrecision" transform="matrix(3,0,0,3,222,51)" stroke="white">
      <rect x="171.4059" y="579.2624" clip-path="url(#clipPath2)" width="144.8086" rx="4" ry="4" height="30" stroke="none"/>
    </g>
    <g font-size="14px" stroke-linecap="butt" transform="matrix(3,0,0,3,222,51)" text-rendering="geometricPrecision" font-family="'Helvetica Neue'" shape-rendering="geometricPrecision" stroke-miterlimit="1.45">
      <text x="193.3892" xml:space="preserve" y="599.4354" clip-path="url(#clipPath2)" stroke="none">SSL Certificates</text>
      <rect x="171.4059" y="579.2624" clip-path="url(#clipPath2)" fill="none" width="144.8086" rx="4" ry="4" height="30"/>
    </g>
    <g fill="white" text-rendering="geometricPrecision" shape-rendering="geometricPrecision" transform="matrix(3,0,0,3,222,51)" stroke="white">
      <rect x="248.8572" y="628.8286" clip-path="url(#clipPath2)" width="67.8086" rx="4" ry="4" height="30" stroke="none"/>
    </g>
    <g font-size="14px" stroke-linecap="butt" transform="matrix(3,0,0,3,222,51)" text-rendering="geometricPrecision" font-family="'Helvetica Neue'" shape-rendering="geometricPrecision" stroke-miterlimit="1.45">
      <text x="268.2435" xml:space="preserve" y="649.0016" clip-path="url(#clipPath2)" stroke="none">DNS</text>
      <rect x="248.8572" y="628.8286" clip-path="url(#clipPath2)" fill="none" width="67.8086" rx="4" ry="4" height="30"/>
    </g>
    <g fill="white" text-rendering="geometricPrecision" shape-rendering="geometricPrecision" transform="matrix(3,0,0,3,222,51)" stroke="white">
      <rect x="171.4059" y="628.8286" clip-path="url(#clipPath2)" width="67.8086" rx="4" ry="4" height="30" stroke="none"/>
    </g>
    <g font-size="14px" stroke-linecap="butt" transform="matrix(3,0,0,3,222,51)" text-rendering="geometricPrecision" font-family="'Helvetica Neue'" shape-rendering="geometricPrecision" stroke-miterlimit="1.45">
      <text x="181.8532" xml:space="preserve" y="649.0016" clip-path="url(#clipPath2)" stroke="none">HTTP/s</text>
      <rect x="171.4059" y="628.8286" clip-path="url(#clipPath2)" fill="none" width="67.8086" rx="4" ry="4" height="30"/>
    </g>
    <g fill="rgb(245,245,245)" text-rendering="geometricPrecision" shape-rendering="geometricPrecision" transform="matrix(3,0,0,3,222,51)" stroke="rgb(245,245,245)">
      <rect x="666.7855" y="439.703" clip-path="url(#clipPath2)" width="151.1659" rx="4" ry="4" height="234.1256" stroke="none"/>
    </g>
    <g transform="matrix(3,0,0,3,222,51)" fill-opacity="0.4667" fill="rgb(114,159,207)" text-rendering="geometricPrecision" shape-rendering="geometricPrecision" stroke="rgb(114,159,207)" stroke-opacity="0.4667">
      <rect x="666.7855" width="151.1659" height="21.475" y="439.703" clip-path="url(#clipPath2)" stroke="none"/>
    </g>
    <g font-size="15px" stroke-linecap="butt" transform="matrix(3,0,0,3,222,51)" text-rendering="geometricPrecision" font-family="'Helvetica Neue'" shape-rendering="geometricPrecision" stroke-miterlimit="1.45">
      <text x="693.1464" xml:space="preserve" y="455.983" clip-path="url(#clipPath2)" stroke="none">Custom Extension</text>
    </g>
    <g stroke-linecap="butt" transform="matrix(3,0,0,3,222,51)" fill-opacity="0.4667" fill="rgb(114,159,207)" text-rendering="geometricPrecision" shape-rendering="geometricPrecision" stroke="rgb(114,159,207)" stroke-opacity="0.4667" stroke-miterlimit="1.45">
      <rect x="666.7855" y="439.703" clip-path="url(#clipPath2)" fill="none" width="151.1659" rx="4" ry="4" height="234.1256"/>
    </g>
    <g fill="white" text-rendering="geometricPrecision" shape-rendering="geometricPrecision" transform="matrix(3,0,0,3,222,51)" stroke="white">
      <rect x="686.8342" y="628.8286" clip-path="url(#clipPath2)" width="113.8086" rx="4" ry="4" height="30" stroke="none"/>
    </g>
    <g font-size="14px" stroke-linecap="butt" transform="matrix(3,0,0,3,222,51)" text-rendering="geometricPrecision" font-family="'Helvetica Neue'" shape-rendering="geometricPrecision" stroke-miterlimit="1.45">
      <text x="712.2385" xml:space="preserve" y="649.0016" clip-path="url(#clipPath2)" stroke="none">BeanShell</text>
      <rect x="686.8342" y="628.8286" clip-path="url(#clipPath2)" fill="none" width="113.8086" rx="4" ry="4" height="30"/>
    </g>
    <g fill="white" text-rendering="geometricPrecision" shape-rendering="geometricPrecision" transform="matrix(3,0,0,3,222,51)" stroke="white">
      <rect x="686.8342" y="552.4881" clip-path="url(#clipPath2)" width="113.8086" rx="4" ry="4" height="30" stroke="none"/>
    </g>
    <g font-size="14px" stroke-linecap="butt" transform="matrix(3,0,0,3,222,51)" text-rendering="geometricPrecision" font-family="'Helvetica Neue'" shape-rendering="geometricPrecision" stroke-miterlimit="1.45">
      <text x="696.2855" xml:space="preserve" y="572.6611" clip-path="url(#clipPath2)" stroke="none">System Scripts</text>
      <rect x="686.8342" y="552.4881" clip-path="url(#clipPath2)" fill="none" width="113.8086" rx="4" ry="4" height="30"/>
    </g>
    <g fill="white" text-rendering="geometricPrecision" shape-rendering="geometricPrecision" transform="matrix(3,0,0,3,222,51)" stroke="white">
      <rect x="686.8342" y="476.3928" clip-path="url(#clipPath2)" width="113.8086" rx="4" ry="4" height="30" stroke="none"/>
    </g>
    <g font-size="14px" stroke-linecap="butt" transform="matrix(3,0,0,3,222,51)" text-rendering="geometricPrecision" font-family="'Helvetica Neue'" shape-rendering="geometricPrecision" stroke-miterlimit="1.45">
      <text x="721.0585" xml:space="preserve" y="496.5658" clip-path="url(#clipPath2)" stroke="none">Groovy</text>
      <rect x="686.8342" y="476.3928" clip-path="url(#clipPath2)" fill="none" width="113.8086" rx="4" ry="4" height="30"/>
    </g>
    <g fill="rgb(245,245,245)" text-rendering="geometricPrecision" shape-rendering="geometricPrecision" transform="matrix(3,0,0,3,222,51)" stroke="rgb(245,245,245)">
      <rect x="357.929" y="439.703" clip-path="url(#clipPath2)" width="287.6419" rx="4" ry="4" height="234.1256" stroke="none"/>
    </g>
    <g transform="matrix(3,0,0,3,222,51)" fill-opacity="0.4667" fill="rgb(114,159,207)" text-rendering="geometricPrecision" shape-rendering="geometricPrecision" stroke="rgb(114,159,207)" stroke-opacity="0.4667">
      <rect x="357.929" width="287.6419" height="21.475" y="439.703" clip-path="url(#clipPath2)" stroke="none"/>
    </g>
    <g font-size="15px" stroke-linecap="butt" transform="matrix(3,0,0,3,222,51)" text-rendering="geometricPrecision" font-family="'Helvetica Neue'" shape-rendering="geometricPrecision" stroke-miterlimit="1.45">
      <text x="528.8359" xml:space="preserve" y="455.983" clip-path="url(#clipPath2)" stroke="none">Application Level</text>
    </g>
    <g stroke-linecap="butt" transform="matrix(3,0,0,3,222,51)" fill-opacity="0.4667" fill="rgb(114,159,207)" text-rendering="geometricPrecision" shape-rendering="geometricPrecision" stroke="rgb(114,159,207)" stroke-opacity="0.4667" stroke-miterlimit="1.45">
      <rect x="357.929" y="439.703" clip-path="url(#clipPath2)" fill="none" width="287.6419" rx="4" ry="4" height="234.1256"/>
    </g>
    <g fill="white" text-rendering="geometricPrecision" shape-rendering="geometricPrecision" transform="matrix(3,0,0,3,222,51)" stroke="white">
      <rect x="372.929" y="476.178" clip-path="url(#clipPath2)" width="67.8086" rx="4" ry="4" height="30" stroke="none"/>
    </g>
    <g font-size="14px" stroke-linecap="butt" transform="matrix(3,0,0,3,222,51)" text-rendering="geometricPrecision" font-family="'Helvetica Neue'" shape-rendering="geometricPrecision" stroke-miterlimit="1.45">
      <text x="393.8693" xml:space="preserve" y="496.351" clip-path="url(#clipPath2)" stroke="none">Mail</text>
      <rect x="372.929" y="476.178" clip-path="url(#clipPath2)" fill="none" width="67.8086" rx="4" ry="4" height="30"/>
    </g>
    <g fill="white" text-rendering="geometricPrecision" shape-rendering="geometricPrecision" transform="matrix(3,0,0,3,222,51)" stroke="white">
      <rect x="562.6667" y="476.178" clip-path="url(#clipPath2)" width="67.8086" rx="4" ry="4" height="30" stroke="none"/>
    </g>
    <g font-size="14px" stroke-linecap="butt" transform="matrix(3,0,0,3,222,51)" text-rendering="geometricPrecision" font-family="'Helvetica Neue'" shape-rendering="geometricPrecision" stroke-miterlimit="1.45">
      <text x="578.1609" xml:space="preserve" y="496.351" clip-path="url(#clipPath2)" stroke="none">JDBC</text>
      <rect x="562.6667" y="476.178" clip-path="url(#clipPath2)" fill="none" width="67.8086" rx="4" ry="4" height="30"/>
    </g>
    <g fill="white" text-rendering="geometricPrecision" shape-rendering="geometricPrecision" transform="matrix(3,0,0,3,222,51)" stroke="white">
      <rect x="467.929" y="476.178" clip-path="url(#clipPath2)" width="67.8086" rx="4" ry="4" height="30" stroke="none"/>
    </g>
    <g font-size="14px" stroke-linecap="butt" transform="matrix(3,0,0,3,222,51)" text-rendering="geometricPrecision" font-family="'Helvetica Neue'" shape-rendering="geometricPrecision" stroke-miterlimit="1.45">
      <text x="478.1103" xml:space="preserve" y="496.351" clip-path="url(#clipPath2)" stroke="none">LDAP/s</text>
      <rect x="467.929" y="476.178" clip-path="url(#clipPath2)" fill="none" width="67.8086" rx="4" ry="4" height="30"/>
    </g>
    <g fill="white" text-rendering="geometricPrecision" shape-rendering="geometricPrecision" transform="matrix(3,0,0,3,222,51)" stroke="white">
      <rect x="468.2624" y="514.8775" clip-path="url(#clipPath2)" width="67.1419" rx="4" ry="4" height="30" stroke="none"/>
    </g>
    <g font-size="14px" stroke-linecap="butt" transform="matrix(3,0,0,3,222,51)" text-rendering="geometricPrecision" font-family="'Helvetica Neue'" shape-rendering="geometricPrecision" stroke-miterlimit="1.45">
      <text x="480.1823" xml:space="preserve" y="535.0505" clip-path="url(#clipPath2)" stroke="none">Radius</text>
      <rect x="468.2624" y="514.8775" clip-path="url(#clipPath2)" fill="none" width="67.1419" rx="4" ry="4" height="30"/>
    </g>
    <g fill="white" text-rendering="geometricPrecision" shape-rendering="geometricPrecision" transform="matrix(3,0,0,3,222,51)" stroke="white">
      <rect x="372.929" y="514.8775" clip-path="url(#clipPath2)" width="67.8086" rx="4" ry="4" height="30" stroke="none"/>
    </g>
    <g font-size="14px" stroke-linecap="butt" transform="matrix(3,0,0,3,222,51)" text-rendering="geometricPrecision" font-family="'Helvetica Neue'" shape-rendering="geometricPrecision" stroke-miterlimit="1.45">
      <text x="387.7793" xml:space="preserve" y="535.0505" clip-path="url(#clipPath2)" stroke="none">JCIFS</text>
      <rect x="372.929" y="514.8775" clip-path="url(#clipPath2)" fill="none" width="67.8086" rx="4" ry="4" height="30"/>
    </g>
    <g fill="white" text-rendering="geometricPrecision" shape-rendering="geometricPrecision" transform="matrix(3,0,0,3,222,51)" stroke="white">
      <rect x="562.7376" y="514.8775" clip-path="url(#clipPath2)" width="67.6667" rx="4" ry="4" height="30" stroke="none"/>
    </g>
    <g font-size="14px" stroke-linecap="butt" transform="matrix(3,0,0,3,222,51)" text-rendering="geometricPrecision" font-family="'Helvetica Neue'" shape-rendering="geometricPrecision" stroke-miterlimit="1.45">
      <text x="581.9269" xml:space="preserve" y="535.0505" clip-path="url(#clipPath2)" stroke="none">BGP</text>
      <rect x="562.7376" y="514.8775" clip-path="url(#clipPath2)" fill="none" width="67.6667" rx="4" ry="4" height="30"/>
    </g>
    <g fill="white" text-rendering="geometricPrecision" shape-rendering="geometricPrecision" transform="matrix(3,0,0,3,222,51)" stroke="white">
      <rect x="372.929" y="590.9881" clip-path="url(#clipPath2)" width="123.8086" rx="4" ry="4" height="30" stroke="none"/>
    </g>
    <g font-size="14px" stroke-linecap="butt" transform="matrix(3,0,0,3,222,51)" text-rendering="geometricPrecision" font-family="'Helvetica Neue'" shape-rendering="geometricPrecision" stroke-miterlimit="1.45">
      <text x="377.2863" xml:space="preserve" y="611.1611" clip-path="url(#clipPath2)" stroke="none">Windows Services</text>
      <rect x="372.929" y="590.9881" clip-path="url(#clipPath2)" fill="none" width="123.8086" rx="4" ry="4" height="30"/>
    </g>
    <g fill="white" text-rendering="geometricPrecision" shape-rendering="geometricPrecision" transform="matrix(3,0,0,3,222,51)" stroke="white">
      <rect x="506.929" y="590.9881" clip-path="url(#clipPath2)" width="123.4752" rx="4" ry="4" height="30" stroke="none"/>
    </g>
    <g font-size="14px" stroke-linecap="butt" transform="matrix(3,0,0,3,222,51)" text-rendering="geometricPrecision" font-family="'Helvetica Neue'" shape-rendering="geometricPrecision" stroke-miterlimit="1.45">
      <text x="510.5877" xml:space="preserve" y="611.1611" clip-path="url(#clipPath2)" stroke="none">System Processes</text>
      <rect x="506.929" y="590.9881" clip-path="url(#clipPath2)" fill="none" width="123.4752" rx="4" ry="4" height="30"/>
    </g>
    <g fill="white" text-rendering="geometricPrecision" shape-rendering="geometricPrecision" transform="matrix(3,0,0,3,222,51)" stroke="white">
      <rect x="506.929" y="553.1476" clip-path="url(#clipPath2)" width="123.4752" rx="4" ry="4" height="30" stroke="none"/>
    </g>
    <g font-size="14px" stroke-linecap="butt" transform="matrix(3,0,0,3,222,51)" text-rendering="geometricPrecision" font-family="'Helvetica Neue'" shape-rendering="geometricPrecision" stroke-miterlimit="1.45">
      <text x="529.7607" xml:space="preserve" y="573.3206" clip-path="url(#clipPath2)" stroke="none">Memcached</text>
      <rect x="506.929" y="553.1476" clip-path="url(#clipPath2)" fill="none" width="123.4752" rx="4" ry="4" height="30"/>
    </g>
    <g fill="white" text-rendering="geometricPrecision" shape-rendering="geometricPrecision" transform="matrix(3,0,0,3,222,51)" stroke="white">
      <rect x="372.929" y="552.9328" clip-path="url(#clipPath2)" width="123.8086" rx="4" ry="4" height="30" stroke="none"/>
    </g>
    <g font-size="14px" stroke-linecap="butt" transform="matrix(3,0,0,3,222,51)" text-rendering="geometricPrecision" font-family="'Helvetica Neue'" shape-rendering="geometricPrecision" stroke-miterlimit="1.45">
      <text x="393.7433" xml:space="preserve" y="573.1058" clip-path="url(#clipPath2)" stroke="none">Cisco IP SLA</text>
      <rect x="372.929" y="552.9328" clip-path="url(#clipPath2)" fill="none" width="123.8086" rx="4" ry="4" height="30"/>
    </g>
    <g fill="white" text-rendering="geometricPrecision" shape-rendering="geometricPrecision" transform="matrix(3,0,0,3,222,51)" stroke="white">
      <rect x="372.929" y="628.8286" clip-path="url(#clipPath2)" width="123.8086" rx="4" ry="4" height="30" stroke="none"/>
    </g>
    <g font-size="14px" stroke-linecap="butt" transform="matrix(3,0,0,3,222,51)" text-rendering="geometricPrecision" font-family="'Helvetica Neue'" shape-rendering="geometricPrecision" stroke-miterlimit="1.45">
      <text x="389.0813" xml:space="preserve" y="649.0016" clip-path="url(#clipPath2)" stroke="none">VMware Hosts</text>
      <rect x="372.929" y="628.8286" clip-path="url(#clipPath2)" fill="none" width="123.8086" rx="4" ry="4" height="30"/>
    </g>
    <g fill="white" text-rendering="geometricPrecision" shape-rendering="geometricPrecision" transform="matrix(3,0,0,3,222,51)" stroke="white">
      <rect x="506.7624" y="628.8286" clip-path="url(#clipPath2)" width="123.8086" rx="4" ry="4" height="30" stroke="none"/>
    </g>
    <g font-size="14px" stroke-linecap="butt" transform="matrix(3,0,0,3,222,51)" text-rendering="geometricPrecision" font-family="'Helvetica Neue'" shape-rendering="geometricPrecision" stroke-miterlimit="1.45">
      <text x="526.2817" xml:space="preserve" y="649.0016" clip-path="url(#clipPath2)" stroke="none">VMware VMS</text>
      <rect x="506.7624" y="628.8286" clip-path="url(#clipPath2)" fill="none" width="123.8086" rx="4" ry="4" height="30"/>
    </g>
    <g fill="rgb(233,185,110)" text-rendering="geometricPrecision" shape-rendering="geometricPrecision" transform="matrix(3,0,0,3,222,51)" stroke="rgb(233,185,110)">
      <rect x="-68.5" y="164.5" clip-path="url(#clipPath2)" width="431.0402" rx="4" ry="4" height="45" stroke="none"/>
    </g>
    <g font-size="16px" stroke-linecap="butt" transform="matrix(3,0,0,3,222,51)" text-rendering="geometricPrecision" font-family="'Helvetica Neue'" shape-rendering="geometricPrecision" font-weight="bold" stroke-miterlimit="1.45">
      <text x="60.7081" xml:space="preserve" y="193.064" clip-path="url(#clipPath2)" stroke="none">Availability Calculation</text>
    </g>
    <g fill="rgb(233,185,110)" text-rendering="geometricPrecision" shape-rendering="geometricPrecision" transform="matrix(3,0,0,3,222,51)" stroke="rgb(233,185,110)">
      <rect x="-68.5" y="105.556" clip-path="url(#clipPath2)" width="886.4513" rx="4" ry="4" height="45" stroke="none"/>
    </g>
    <g font-size="16px" stroke-linecap="butt" transform="matrix(3,0,0,3,222,51)" text-rendering="geometricPrecision" font-family="'Helvetica Neue'" shape-rendering="geometricPrecision" stroke-miterlimit="1.45">
      <text x="340.5097" xml:space="preserve" y="133.968" clip-path="url(#clipPath2)" stroke="none">ReST API</text>
    </g>
    <g fill="rgb(233,185,110)" text-rendering="geometricPrecision" shape-rendering="geometricPrecision" transform="matrix(3,0,0,3,222,51)" stroke="rgb(233,185,110)">
      <rect x="-68.5" y="-11.832" clip-path="url(#clipPath2)" width="200" rx="4" ry="4" height="80" stroke="none"/>
    </g>
    <g font-size="16px" stroke-linecap="butt" transform="matrix(3,0,0,3,222,51)" text-rendering="geometricPrecision" font-family="'Helvetica Neue'" shape-rendering="geometricPrecision" font-weight="bold" stroke-miterlimit="1.45">
      <text x="-2.116" xml:space="preserve" y="34.232" clip-path="url(#clipPath2)" stroke="none">Web GUI</text>
    </g>
    <g fill="rgb(233,185,110)" text-rendering="geometricPrecision" shape-rendering="geometricPrecision" transform="matrix(3,0,0,3,222,51)" stroke="rgb(233,185,110)">
      <rect x="161.5" y="-11.832" clip-path="url(#clipPath2)" width="200" rx="4" ry="4" height="80" stroke="none"/>
    </g>
    <g font-size="16px" stroke-linecap="butt" transform="matrix(3,0,0,3,222,51)" text-rendering="geometricPrecision" font-family="'Helvetica Neue'" shape-rendering="geometricPrecision" font-weight="bold" stroke-miterlimit="1.45">
      <text x="179.908" xml:space="preserve" y="34.232" clip-path="url(#clipPath2)" stroke="none">Compass Mobile App</text>
    </g>
    <g fill="rgb(233,185,110)" text-rendering="geometricPrecision" shape-rendering="geometricPrecision" transform="matrix(3,0,0,3,222,51)" stroke="rgb(233,185,110)">
      <rect x="386.9111" y="164.5" clip-path="url(#clipPath2)" width="431.0402" rx="4" ry="4" height="45" stroke="none"/>
    </g>
    <g font-size="16px" stroke-linecap="butt" transform="matrix(3,0,0,3,222,51)" text-rendering="geometricPrecision" font-family="'Helvetica Neue'" shape-rendering="geometricPrecision" font-weight="bold" stroke-miterlimit="1.45">
      <text x="520.0632" xml:space="preserve" y="193.064" clip-path="url(#clipPath2)" stroke="none">Latency Thresholding</text>
    </g>
    <g fill="rgb(115,210,22)" text-rendering="geometricPrecision" shape-rendering="geometricPrecision" transform="matrix(3,0,0,3,222,51)" stroke="rgb(115,210,22)">
      <rect x="386.9111" y="223.444" clip-path="url(#clipPath2)" width="431.0402" rx="4" ry="4" height="80" stroke="none"/>
    </g>
    <g font-size="16px" stroke-linecap="butt" transform="matrix(3,0,0,3,222,51)" text-rendering="geometricPrecision" font-family="'Helvetica Neue'" shape-rendering="geometricPrecision" font-weight="bold" stroke-miterlimit="1.45">
      <text x="513.0952" xml:space="preserve" y="269.508" clip-path="url(#clipPath2)" stroke="none">Latency Measurements</text>
    </g>
    <g fill="rgb(233,185,110)" text-rendering="geometricPrecision" shape-rendering="geometricPrecision" transform="matrix(3,0,0,3,222,51)" stroke="rgb(233,185,110)">
      <rect x="391.5" y="-11.832" clip-path="url(#clipPath2)" width="200" rx="4" ry="4" height="80" stroke="none"/>
    </g>
    <g font-size="16px" stroke-linecap="butt" transform="matrix(3,0,0,3,222,51)" text-rendering="geometricPrecision" font-family="'Helvetica Neue'" shape-rendering="geometricPrecision" font-weight="bold" stroke-miterlimit="1.45">
      <text x="432.98" xml:space="preserve" y="34.232" clip-path="url(#clipPath2)" stroke="none">Jasper Reports</text>
    </g>
    <g transform="matrix(3,0,0,3,222,51)" fill-opacity="0.4667" fill="rgb(233,185,110)" text-rendering="geometricPrecision" shape-rendering="geometricPrecision" stroke="rgb(233,185,110)" stroke-opacity="0.4667">
      <rect x="617.9513" y="-11.832" clip-path="url(#clipPath2)" width="200" rx="4" ry="4" height="80" stroke="none"/>
    </g>
    <g font-size="16px" stroke-linecap="butt" transform="matrix(3,0,0,3,222,51)" text-rendering="geometricPrecision" font-family="'Helvetica Neue'" shape-rendering="geometricPrecision" font-weight="bold" stroke-miterlimit="1.45">
      <text x="676.3353" xml:space="preserve" y="34.232" clip-path="url(#clipPath2)" stroke="none">Integration</text>
    </g>
  </g>
</svg>
