<?xml version="1.0" encoding="UTF-8"?><svg xmlns="http://www.w3.org/2000/svg" xmlns:xlink="http://www.w3.org/1999/xlink" fill-opacity="1" color-rendering="auto" color-interpolation="auto" text-rendering="auto" stroke="black" stroke-linecap="square" width="440" stroke-miterlimit="10" shape-rendering="auto" stroke-opacity="1" fill="black" stroke-dasharray="none" font-weight="normal" stroke-width="1" height="207" font-family="'Dialog'" font-style="normal" stroke-linejoin="miter" font-size="12px" stroke-dashoffset="0" image-rendering="auto">
  <!--Generated by ySVG 2.5-->
  <defs id="genericDefs"/>
  <g>
    <defs id="defs1">
      <clipPath clipPathUnits="userSpaceOnUse" id="clipPath1">
        <path d="M0 0 L440 0 L440 207 L0 207 L0 0 Z"/>
      </clipPath>
      <clipPath clipPathUnits="userSpaceOnUse" id="clipPath2">
        <path d="M171 59 L611 59 L611 266 L171 266 L171 59 Z"/>
      </clipPath>
    </defs>
    <g fill="white" text-rendering="geometricPrecision" shape-rendering="geometricPrecision" transform="translate(-171,-59)" stroke="white">
      <rect x="171" width="440" height="207" y="59" clip-path="url(#clipPath2)" stroke="none"/>
    </g>
    <g fill="rgb(114,159,207)" text-rendering="geometricPrecision" shape-rendering="geometricPrecision" transform="matrix(1,0,0,1,-171,-59)" stroke="rgb(114,159,207)">
      <rect x="401" y="74" clip-path="url(#clipPath2)" width="99" rx="4" ry="4" height="39" stroke="none"/>
    </g>
    <g text-rendering="geometricPrecision" stroke-miterlimit="1.45" shape-rendering="geometricPrecision" transform="matrix(1,0,0,1,-171,-59)" stroke-linecap="butt">
      <rect x="401" y="74" clip-path="url(#clipPath2)" fill="none" width="99" rx="4" ry="4" height="39"/>
      <text x="429.05" xml:space="preserve" y="97.934" clip-path="url(#clipPath2)" font-family="'Helvetica Neue'" stroke="none">centos7</text>
    </g>
    <g fill="rgb(138,226,52)" text-rendering="geometricPrecision" shape-rendering="geometricPrecision" transform="matrix(1,0,0,1,-171,-59)" stroke="rgb(138,226,52)">
      <rect x="401" y="143" clip-path="url(#clipPath2)" width="145" rx="4" ry="4" height="39" stroke="none"/>
    </g>
    <g text-rendering="geometricPrecision" stroke-miterlimit="1.45" shape-rendering="geometricPrecision" transform="matrix(1,0,0,1,-171,-59)" stroke-linecap="butt">
      <rect x="401" y="143" clip-path="url(#clipPath2)" fill="none" width="145" rx="4" ry="4" height="39"/>
      <text x="457.156" xml:space="preserve" y="166.934" clip-path="url(#clipPath2)" font-family="'Helvetica Neue'" stroke="none">JDK 8</text>
    </g>
    <g fill="rgb(138,226,52)" text-rendering="geometricPrecision" shape-rendering="geometricPrecision" transform="matrix(1,0,0,1,-171,-59)" stroke="rgb(138,226,52)">
      <rect x="401" y="212" clip-path="url(#clipPath2)" width="195" rx="4" ry="4" height="39" stroke="none"/>
    </g>
    <g text-rendering="geometricPrecision" stroke-miterlimit="1.45" shape-rendering="geometricPrecision" transform="matrix(1,0,0,1,-171,-59)" stroke-linecap="butt">
      <rect x="401" y="212" clip-path="url(#clipPath2)" fill="none" width="195" rx="4" ry="4" height="39"/>
      <text x="447.944" xml:space="preserve" y="235.934" clip-path="url(#clipPath2)" font-family="'Helvetica Neue'" stroke="none">OpenNMS Horizon</text>
      <text x="252.312" xml:space="preserve" y="97.934" clip-path="url(#clipPath2)" font-family="'Helvetica Neue'" stroke="none">Vanilla Centos 7 image</text>
      <text x="247.62" xml:space="preserve" y="162.434" clip-path="url(#clipPath2)" font-family="'Helvetica Neue'" stroke="none">Java Development Kit 8</text>
      <text x="191.856" xml:space="preserve" y="231.434" clip-path="url(#clipPath2)" font-family="'Helvetica Neue'" stroke="none">OpenNMS Horizon from yum repo</text>
    </g>
  </g>
</svg>
