<?xml version="1.0" encoding="UTF-8"?><svg xmlns="http://www.w3.org/2000/svg" xmlns:xlink="http://www.w3.org/1999/xlink" fill-opacity="1" color-rendering="auto" color-interpolation="auto" text-rendering="auto" stroke="black" stroke-linecap="square" width="502" stroke-miterlimit="10" shape-rendering="auto" stroke-opacity="1" fill="black" stroke-dasharray="none" font-weight="normal" stroke-width="1" height="190" font-family="'Dialog'" font-style="normal" stroke-linejoin="miter" font-size="12px" stroke-dashoffset="0" image-rendering="auto">
  <!--Generated by ySVG 2.5-->
  <defs id="genericDefs"/>
  <g>
    <defs id="defs1">
      <clipPath clipPathUnits="userSpaceOnUse" id="clipPath1">
        <path d="M0 0 L502 0 L502 190 L0 190 L0 0 Z"/>
      </clipPath>
      <clipPath clipPathUnits="userSpaceOnUse" id="clipPath2">
        <path d="M191 59 L693 59 L693 249 L191 249 L191 59 Z"/>
      </clipPath>
    </defs>
    <g fill="white" text-rendering="geometricPrecision" shape-rendering="geometricPrecision" transform="translate(-191,-59)" stroke="white">
      <rect x="191" width="502" height="190" y="59" clip-path="url(#clipPath2)" stroke="none"/>
    </g>
    <g fill="rgb(52,101,164)" text-rendering="geometricPrecision" shape-rendering="geometricPrecision" transform="matrix(1,0,0,1,-191,-59)" stroke="rgb(52,101,164)">
      <rect x="206" y="131.5" clip-path="url(#clipPath2)" width="148" rx="4" ry="4" height="45" stroke="none"/>
    </g>
    <g text-rendering="geometricPrecision" stroke-miterlimit="1.45" shape-rendering="geometricPrecision" transform="matrix(1,0,0,1,-191,-59)" stroke-linecap="butt">
      <rect x="206" y="131.5" clip-path="url(#clipPath2)" fill="none" width="148" rx="4" ry="4" height="45"/>
      <text x="241.888" y="158.434" clip-path="url(#clipPath2)" fill="white" font-family="'Helvetica Neue'" stroke="none" xml:space="preserve">Postgres Data</text>
    </g>
    <g fill="rgb(78,154,6)" text-rendering="geometricPrecision" shape-rendering="geometricPrecision" transform="matrix(1,0,0,1,-191,-59)" stroke="rgb(78,154,6)">
      <rect x="368" y="189" clip-path="url(#clipPath2)" width="148" rx="4" ry="4" height="45" stroke="none"/>
    </g>
    <g text-rendering="geometricPrecision" stroke-miterlimit="1.45" shape-rendering="geometricPrecision" transform="matrix(1,0,0,1,-191,-59)" stroke-linecap="butt">
      <rect x="368" y="189" clip-path="url(#clipPath2)" fill="none" width="148" rx="4" ry="4" height="45"/>
      <text x="399.652" y="215.934" clip-path="url(#clipPath2)" fill="white" font-family="'Helvetica Neue'" stroke="none" xml:space="preserve">OpenNMS Data</text>
    </g>
    <g fill="rgb(138,226,52)" text-rendering="geometricPrecision" shape-rendering="geometricPrecision" transform="matrix(1,0,0,1,-191,-59)" stroke="rgb(138,226,52)">
      <rect x="368" y="74" clip-path="url(#clipPath2)" width="148" rx="4" ry="4" height="45" stroke="none"/>
    </g>
    <g text-rendering="geometricPrecision" stroke-miterlimit="1.45" shape-rendering="geometricPrecision" transform="matrix(1,0,0,1,-191,-59)" stroke-linecap="butt">
      <rect x="368" y="74" clip-path="url(#clipPath2)" fill="none" width="148" rx="4" ry="4" height="45"/>
      <text x="391.444" xml:space="preserve" y="100.934" clip-path="url(#clipPath2)" font-family="'Helvetica Neue'" stroke="none">OpenNMS Horizon</text>
    </g>
    <g fill="rgb(114,159,207)" text-rendering="geometricPrecision" shape-rendering="geometricPrecision" transform="matrix(1,0,0,1,-191,-59)" stroke="rgb(114,159,207)">
      <rect x="530" y="74" clip-path="url(#clipPath2)" width="148" rx="4" ry="4" height="45" stroke="none"/>
    </g>
    <g text-rendering="geometricPrecision" stroke-miterlimit="1.45" shape-rendering="geometricPrecision" transform="matrix(1,0,0,1,-191,-59)" stroke-linecap="butt">
      <rect x="530" y="74" clip-path="url(#clipPath2)" fill="none" width="148" rx="4" ry="4" height="45"/>
      <text x="582.67" xml:space="preserve" y="93.944" clip-path="url(#clipPath2)" font-family="'Helvetica Neue'" stroke="none">Grafana</text>
      <text x="568.558" xml:space="preserve" y="107.924" clip-path="url(#clipPath2)" font-family="'Helvetica Neue'" stroke="none">official image</text>
    </g>
    <g fill="rgb(52,101,164)" text-rendering="geometricPrecision" shape-rendering="geometricPrecision" transform="matrix(1,0,0,1,-191,-59)" stroke="rgb(52,101,164)">
      <rect x="530" y="131.5" clip-path="url(#clipPath2)" width="148" rx="4" ry="4" height="45" stroke="none"/>
    </g>
    <g text-rendering="geometricPrecision" stroke-miterlimit="1.45" shape-rendering="geometricPrecision" transform="matrix(1,0,0,1,-191,-59)" stroke-linecap="butt">
      <rect x="530" y="131.5" clip-path="url(#clipPath2)" fill="none" width="148" rx="4" ry="4" height="45"/>
      <text x="568.444" y="158.434" clip-path="url(#clipPath2)" fill="white" font-family="'Helvetica Neue'" stroke="none" xml:space="preserve">Grafana Data</text>
    </g>
    <g fill="rgb(78,154,6)" text-rendering="geometricPrecision" shape-rendering="geometricPrecision" transform="matrix(1,0,0,1,-191,-59)" stroke="rgb(78,154,6)">
      <rect x="368" y="131.5" clip-path="url(#clipPath2)" width="148" rx="4" ry="4" height="45" stroke="none"/>
    </g>
    <g text-rendering="geometricPrecision" stroke-miterlimit="1.45" shape-rendering="geometricPrecision" transform="matrix(1,0,0,1,-191,-59)" stroke-linecap="butt">
      <rect x="368" y="131.5" clip-path="url(#clipPath2)" fill="none" width="148" rx="4" ry="4" height="45"/>
      <text x="394.546" y="158.434" clip-path="url(#clipPath2)" fill="white" font-family="'Helvetica Neue'" stroke="none" xml:space="preserve">OpenNMS Config</text>
    </g>
    <g fill="rgb(114,159,207)" text-rendering="geometricPrecision" shape-rendering="geometricPrecision" transform="matrix(1,0,0,1,-191,-59)" stroke="rgb(114,159,207)">
      <rect x="206" y="74" clip-path="url(#clipPath2)" width="148" rx="4" ry="4" height="45" stroke="none"/>
    </g>
    <g text-rendering="geometricPrecision" stroke-miterlimit="1.45" shape-rendering="geometricPrecision" transform="matrix(1,0,0,1,-191,-59)" stroke-linecap="butt">
      <rect x="206" y="74" clip-path="url(#clipPath2)" fill="none" width="148" rx="4" ry="4" height="45"/>
      <text x="247.33" xml:space="preserve" y="93.944" clip-path="url(#clipPath2)" font-family="'Helvetica Neue'" stroke="none">PostgreSQL</text>
      <text x="244.558" xml:space="preserve" y="107.924" clip-path="url(#clipPath2)" font-family="'Helvetica Neue'" stroke="none">official image</text>
    </g>
  </g>
</svg>
