<?xml version="1.0" encoding="UTF-8"?><svg xmlns="http://www.w3.org/2000/svg" xmlns:xlink="http://www.w3.org/1999/xlink" fill-opacity="1" color-rendering="auto" color-interpolation="auto" text-rendering="auto" stroke="black" stroke-linecap="square" width="390" stroke-miterlimit="10" shape-rendering="auto" stroke-opacity="1" fill="black" stroke-dasharray="none" font-weight="normal" stroke-width="1" height="257" font-family="'Dialog'" font-style="normal" stroke-linejoin="miter" font-size="12px" stroke-dashoffset="0" image-rendering="auto">
  <!--Generated by ySVG 2.5-->
  <defs id="genericDefs"/>
  <g>
    <defs id="defs1">
      <clipPath clipPathUnits="userSpaceOnUse" id="clipPath1">
        <path d="M0 0 L390 0 L390 257 L0 257 L0 0 Z"/>
      </clipPath>
      <clipPath clipPathUnits="userSpaceOnUse" id="clipPath2">
        <path d="M171 26 L561 26 L561 283 L171 283 L171 26 Z"/>
      </clipPath>
    </defs>
    <g fill="white" text-rendering="geometricPrecision" shape-rendering="geometricPrecision" transform="translate(-171,-26)" stroke="white">
      <rect x="171" width="390" height="257" y="26" clip-path="url(#clipPath2)" stroke="none"/>
    </g>
    <g fill="rgb(114,159,207)" text-rendering="geometricPrecision" shape-rendering="geometricPrecision" transform="matrix(1,0,0,1,-171,-26)" stroke="rgb(114,159,207)">
      <rect x="401" y="41" clip-path="url(#clipPath2)" width="145" rx="4" ry="4" height="39" stroke="none"/>
    </g>
    <g text-rendering="geometricPrecision" stroke-miterlimit="1.45" shape-rendering="geometricPrecision" transform="matrix(1,0,0,1,-171,-26)" stroke-linecap="butt">
      <rect x="401" y="41" clip-path="url(#clipPath2)" fill="none" width="145" rx="4" ry="4" height="39"/>
      <text x="450.052" xml:space="preserve" y="64.934" clip-path="url(#clipPath2)" font-family="'Helvetica Neue'" stroke="none">centos/7</text>
    </g>
    <g fill="rgb(138,226,52)" text-rendering="geometricPrecision" shape-rendering="geometricPrecision" transform="matrix(1,0,0,1,-171,-26)" stroke="rgb(138,226,52)">
      <rect x="401" y="134.75" clip-path="url(#clipPath2)" width="145" rx="4" ry="4" height="39" stroke="none"/>
    </g>
    <g text-rendering="geometricPrecision" stroke-miterlimit="1.45" shape-rendering="geometricPrecision" transform="matrix(1,0,0,1,-171,-26)" stroke-linecap="butt">
      <rect x="401" y="134.75" clip-path="url(#clipPath2)" fill="none" width="145" rx="4" ry="4" height="39"/>
      <text x="451.936" xml:space="preserve" y="158.684" clip-path="url(#clipPath2)" font-family="'Helvetica Neue'" stroke="none">openjdk</text>
    </g>
    <g fill="rgb(138,226,52)" text-rendering="geometricPrecision" shape-rendering="geometricPrecision" transform="matrix(1,0,0,1,-171,-26)" stroke="rgb(138,226,52)">
      <rect x="401" y="228.5" clip-path="url(#clipPath2)" width="145" rx="4" ry="4" height="39" stroke="none"/>
    </g>
    <g text-rendering="geometricPrecision" stroke-miterlimit="1.45" shape-rendering="geometricPrecision" transform="matrix(1,0,0,1,-171,-26)" stroke-linecap="butt">
      <rect x="401" y="228.5" clip-path="url(#clipPath2)" fill="none" width="145" rx="4" ry="4" height="39"/>
      <text x="425.848" xml:space="preserve" y="252.434" clip-path="url(#clipPath2)" font-family="'Helvetica Neue'" stroke="none">horizon-core-web</text>
      <text x="252.312" xml:space="preserve" y="64.934" clip-path="url(#clipPath2)" font-family="'Helvetica Neue'" stroke="none">Vanilla Centos 7 image</text>
      <text x="247.62" xml:space="preserve" y="154.184" clip-path="url(#clipPath2)" font-family="'Helvetica Neue'" stroke="none">Java Development Kit 8</text>
      <text x="191.856" xml:space="preserve" y="252.434" clip-path="url(#clipPath2)" font-family="'Helvetica Neue'" stroke="none">OpenNMS Horizon from yum repo</text>
      <path fill="none" d="M473.5 134.795 L473.5 87.9807" clip-path="url(#clipPath2)"/>
      <path d="M473.5 79.9807 L468.5 91.9807 L473.5 88.9807 L478.5 91.9807 Z" clip-path="url(#clipPath2)" stroke="none"/>
      <rect x="434.168" y="98.355" clip-path="url(#clipPath2)" fill="white" width="78.664" height="18.04" stroke="none"/>
      <text x="436.168" y="111.839" clip-path="url(#clipPath2)" font-family="'Helvetica Neue'" font-style="italic" stroke="none" xml:space="preserve">from centos/7</text>
      <path fill="none" d="M473.5 228.545 L473.5 181.7307" clip-path="url(#clipPath2)"/>
      <path d="M473.5 173.7307 L468.5 185.7307 L473.5 182.7307 L478.5 185.7307 Z" clip-path="url(#clipPath2)" stroke="none"/>
      <rect x="426.056" y="192.105" clip-path="url(#clipPath2)" fill="white" width="94.888" height="18.04" stroke="none"/>
      <text x="428.056" y="205.589" clip-path="url(#clipPath2)" font-family="'Helvetica Neue'" font-style="italic" stroke="none" xml:space="preserve">from centos-jdk8</text>
    </g>
  </g>
</svg>
